<?xml version="1.0" standalone="no"?>
<!DOCTYPE svg PUBLIC "-//W3C//DTD SVG 20010904//EN"
 "http://www.w3.org/TR/2001/REC-SVG-20010904/DTD/svg10.dtd">
<svg version="1.0" xmlns="http://www.w3.org/2000/svg"
 width="495.000000pt" height="495.000000pt" viewBox="0 0 495.000000 495.000000"
 preserveAspectRatio="xMidYMid meet">
<metadata>
Created by potrace 1.14, written by Peter Selinger 2001-2017
</metadata>
<g transform="translate(0.000000,495.000000) scale(0.100000,-0.100000)"
fill="#000000" stroke="none">
<path d="M2290 3778 c-154 -10 -223 -20 -374 -54 -377 -84 -726 -268 -954
-504 -45 -46 -168 -203 -174 -222 -3 -8 -16 -7 -43 2 -62 21 -233 37 -300 28
-148 -19 -269 -71 -347 -149 -65 -65 -91 -125 -90 -208 3 -214 257 -396 566
-406 l89 -3 22 -69 c117 -363 422 -658 872 -847 163 -68 422 -135 587 -151 17
-2 53 -7 81 -10 66 -10 384 -10 460 -1 33 4 80 9 105 12 302 36 671 169 912
331 262 176 452 412 533 666 16 49 27 71 37 68 40 -13 248 -9 303 5 145 37
279 132 331 236 131 259 -112 539 -471 542 -100 0 -214 -22 -276 -55 -13 -7
-26 6 -61 59 -262 393 -810 674 -1418 727 -107 10 -280 11 -390 3z"/>
</g>
</svg>
