<?xml version="1.0" encoding="utf-8"?>
<!-- Generator: Adobe Illustrator 24.3.0, SVG Export Plug-In . SVG Version: 6.00 Build 0)  -->
<svg version="1.1" id="Layer_1" xmlns="http://www.w3.org/2000/svg" xmlns:xlink="http://www.w3.org/1999/xlink" x="0px" y="0px"
	 viewBox="0 0 340.16 340.16" style="enable-background:new 0 0 340.16 340.16;" xml:space="preserve">
<style type="text/css">
	.st0{fill:none;stroke:#000000;stroke-width:2;stroke-miterlimit:10;}
	.st1{fill:none;stroke:#000000;stroke-miterlimit:10;}
	.st2{fill:none;stroke:#000000;stroke-miterlimit:10;stroke-dasharray:14.4186,14.4186;}
	.st3{fill:none;stroke:#000000;stroke-miterlimit:10;stroke-dasharray:10.3708,10.3708;}
	.st4{fill:#231F20;}
</style>
<g>
	<g>
		<path d="M-72.53,514.6c-0.52-0.05-1.04-0.1-1.56-0.13c-6.71-0.44-12.97-2.35-18.8-5.69c-5.74-3.29-10.49-7.68-14.25-13.12
			c-3.18-4.59-5.39-9.61-6.64-15.05c-0.52-2.25-0.84-4.53-1-6.84c-0.13-1.86-0.15-3.72-0.04-5.57c0.44-7.11,2.43-13.75,6.11-19.85
			c4.82-8,11.51-13.9,20.06-17.69c3.13-1.39,6.39-2.38,9.76-2.97c1.58-0.27,3.18-0.47,4.77-0.56c1.85-0.1,3.72-0.13,5.57-0.05
			c2.38,0.09,4.73,0.45,7.05,0.97c6.5,1.47,12.38,4.25,17.59,8.4c7.25,5.78,12.21,13.13,14.85,22.02c0.66,2.22,1.13,4.47,1.41,6.76
			c0.15,1.26,0.21,2.54,0.31,3.81c0.01,0.15,0.04,0.29,0.07,0.44c0,0.87,0,1.73,0,2.6c-0.02,0.11-0.05,0.22-0.06,0.33
			c-0.12,1.4-0.21,2.81-0.37,4.21c-0.23,2.09-0.69,4.14-1.27,6.17c-1.74,6.05-4.64,11.48-8.7,16.28c-3.3,3.9-7.15,7.12-11.57,9.66
			c-5.84,3.36-12.12,5.28-18.85,5.72c-0.52,0.03-1.04,0.09-1.56,0.13C-70.61,514.6-71.57,514.6-72.53,514.6z M-63.37,483.3
			c-3.48,0.4-6.93,0.46-10.45,0.39c0,2,0,3.95,0,5.94c0.17,0.02,0.39,0.05,0.6,0.05c1.66-0.01,3.33,0.01,4.99-0.06
			c1.63-0.07,3.25-0.23,4.87-0.33c0.24-0.02,0.28-0.1,0.27-0.31c-0.07-1.5-0.13-3.01-0.21-4.51
			C-63.3,484.09-63.34,483.72-63.37,483.3z M-63.39,482.91c-0.03-0.4-0.06-0.75-0.08-1.1c-0.12-1.62-0.24-3.25-0.35-4.87
			c-0.02-0.21-0.08-0.29-0.32-0.27c-1.36,0.12-2.72,0.27-4.08,0.31c-1.66,0.05-3.33,0.02-4.99,0.01c-0.3,0-0.42,0.05-0.42,0.38
			c-0.03,1.72-0.09,3.44-0.14,5.16c-0.01,0.24,0,0.47,0,0.75C-70.3,483.4-66.87,483.29-63.39,482.91z M-74.01,477.01
			c-0.09-0.01-0.15-0.02-0.2-0.03c-1.34-0.11-2.68-0.18-4.02-0.34c-1.66-0.2-3.31-0.46-4.96-0.72c-0.32-0.05-0.42,0.01-0.46,0.33
			c-0.16,1.3-0.35,2.59-0.52,3.89c-0.08,0.63-0.14,1.26-0.22,1.93c3.38,0.65,6.77,1.05,10.2,1.19
			C-74.12,481.14-74.06,479.08-74.01,477.01z M-84.45,482.5c-0.16,1.95-0.32,3.89-0.48,5.88c3.53,0.7,7.05,1.09,10.63,1.25
			c0.04-1.96,0.08-3.86,0.11-5.76c0-0.07-0.13-0.21-0.21-0.22c-0.76-0.06-1.52-0.09-2.28-0.15c-1.03-0.09-2.07-0.17-3.09-0.3
			C-81.31,482.99-82.83,482.74-84.45,482.5z M-62.99,482.83c0.15,0,0.26,0.01,0.37,0c0.75-0.1,1.51-0.21,2.26-0.32
			c2.31-0.34,4.58-0.82,6.83-1.42c0.32-0.08,0.45-0.19,0.33-0.53c-0.06-0.15-0.05-0.31-0.08-0.47c-0.29-1.66-0.59-3.31-0.87-4.97
			c-0.05-0.27-0.15-0.28-0.37-0.21c-0.34,0.1-0.68,0.2-1.02,0.27c-1.93,0.38-3.85,0.77-5.78,1.14c-0.7,0.13-1.41,0.21-2.14,0.31
			C-63.3,478.7-63.15,480.75-62.99,482.83z M-53.08,481.38c-0.85,0.21-1.66,0.45-2.48,0.6c-2.32,0.43-4.65,0.84-6.98,1.21
			c-0.4,0.06-0.44,0.2-0.42,0.53c0.08,1.56,0.15,3.12,0.23,4.68c0.01,0.26,0.05,0.52,0.07,0.79c0.11,0,0.19,0.01,0.28,0
			c1.05-0.15,2.09-0.29,3.14-0.45c2.21-0.34,4.39-0.82,6.55-1.41c0.21-0.06,0.27-0.13,0.25-0.35c-0.13-1.24-0.24-2.49-0.37-3.73
			C-52.89,482.62-52.99,482.01-53.08,481.38z M-63.03,489.65c-3.66,0.41-7.25,0.5-10.88,0.4c0,0.16,0,0.28,0,0.41
			c0,1.46-0.01,2.92-0.01,4.38c0,0.73,0,0.73,0.73,0.74c2.67,0.03,5.33,0.01,8-0.21c0.73-0.06,1.46-0.14,2.17-0.21
			C-63.03,493.31-63.03,491.51-63.03,489.65z M-73.6,476.6c3.28,0.15,6.48-0.01,9.7-0.33c-0.05-0.63-0.09-1.2-0.15-1.78
			c-0.15-1.44-0.31-2.87-0.45-4.31c-0.02-0.27-0.11-0.32-0.35-0.29c-1.01,0.1-2.02,0.22-3.03,0.25c-1.73,0.05-3.46,0.03-5.2,0.05
			c-0.09,0-0.17,0.01-0.3,0.02C-73.45,472.34-73.52,474.45-73.6,476.6z M-82.44,469.25c0.02-0.03-0.01,0-0.01,0.03
			c-0.35,1.98-0.69,3.96-1.04,5.94c-0.03,0.2,0.03,0.28,0.24,0.31c0.72,0.11,1.43,0.26,2.15,0.36c1.21,0.17,2.41,0.32,3.62,0.45
			c1.02,0.1,2.04,0.15,3.06,0.24c0.44,0.04,0.43,0.05,0.45-0.4c0.07-1.88,0.13-3.76,0.2-5.64c0-0.12,0-0.24,0-0.27
			C-76.67,469.92-79.54,469.59-82.44,469.25z M-74.33,490.02c-3.56-0.15-7.08-0.56-10.62-1.24c-0.05,1.86-0.1,3.65-0.15,5.48
			c3.58,0.7,7.14,1.1,10.77,1.26C-74.33,493.67-74.33,491.86-74.33,490.02z M-84.79,482c0.27-2.11,0.54-4.14,0.81-6.22
			c-2.96-0.6-5.85-1.41-8.66-2.47c-0.04,0.06-0.06,0.07-0.07,0.09c-0.42,1.85-0.83,3.7-1.27,5.54c-0.08,0.33,0.02,0.43,0.3,0.53
			c2.25,0.83,4.54,1.52,6.88,2.07C-86.15,481.7-85.48,481.84-84.79,482z M-85.3,488.31c0.02-0.24,0.03-0.45,0.05-0.67
			c0.04-0.5,0.06-1,0.11-1.5c0.1-1.16,0.2-2.31,0.31-3.47c0.02-0.22-0.03-0.31-0.27-0.36c-3-0.61-5.93-1.43-8.79-2.51
			c-0.07-0.03-0.14-0.03-0.29-0.06c-0.25,1.86-0.49,3.7-0.75,5.53c-0.04,0.32,0.18,0.35,0.38,0.42
			C-91.56,486.8-88.5,487.67-85.3,488.31z M-54.27,474.42c-0.49-2.07-0.98-4.13-1.47-6.21c-2.79,0.77-5.56,1.28-8.39,1.62
			c0.22,2.15,0.43,4.26,0.64,6.36C-62.38,476.24-56.14,475.05-54.27,474.42z M-52.4,487.65c-3.41,0.94-6.82,1.56-10.22,1.96
			c0,1.85,0,3.66,0,5.51c0.68-0.08,1.29-0.14,1.89-0.23c2.79-0.41,5.55-0.95,8.27-1.69c0.23-0.06,0.28-0.16,0.28-0.38
			c-0.03-1.09-0.05-2.19-0.09-3.28C-52.29,488.92-52.35,488.31-52.4,487.65z M-83.93,475.42c0.38-2.16,0.74-4.25,1.08-6.25
			c-2.65-0.75-5.25-1.5-7.88-2.24c-0.01,0.02-0.05,0.09-0.07,0.16c-0.57,1.83-1.13,3.67-1.7,5.5c-0.08,0.27-0.01,0.37,0.23,0.45
			c1.6,0.51,3.2,1.05,4.81,1.52C-86.3,474.89-85.12,475.13-83.93,475.42z M-45.68,471.64c-2.67,1.31-5.36,2.29-8.13,3.08
			c0.37,2.06,0.72,4.09,1.08,6.14c2.98-0.85,5.84-1.91,8.65-3.3C-44.6,475.6-45.13,473.66-45.68,471.64z M-44.02,477.98
			c-2.83,1.39-5.72,2.44-8.65,3.28c0.22,1.98,0.44,3.9,0.66,5.85c0.09-0.01,0.16-0.02,0.24-0.04c2.91-0.85,5.73-1.91,8.46-3.21
			c0.22-0.11,0.26-0.25,0.23-0.46c-0.18-1.14-0.35-2.29-0.54-3.43C-43.73,479.32-43.88,478.68-44.02,477.98z M-95.06,485.92
			c-0.07,1.81-0.15,3.53-0.2,5.26c0,0.09,0.14,0.24,0.25,0.28c2.69,1.03,5.44,1.82,8.25,2.46c0.42,0.09,0.84,0.17,1.27,0.26
			c0.05-1.84,0.1-3.64,0.15-5.47C-88.61,488.04-91.82,487.15-95.06,485.92z M-73.91,495.94c0,1.59,0,3.12,0,4.66
			c0,0.25,0.17,0.23,0.33,0.23c3.11,0.06,6.22,0.02,9.33-0.27c0.39-0.04,0.78-0.09,1.22-0.14c0-1.64,0-3.24,0-4.88
			C-66.64,495.96-70.25,496.02-73.91,495.94z M-73.1,463.38c0,0.41,0.02,0.81,0,1.2c-0.07,1.65-0.16,3.3-0.24,4.95
			c-0.01,0.17,0.04,0.25,0.22,0.25c0.31,0,0.61,0.05,0.92,0.04c1.79-0.04,3.58-0.07,5.36-0.14c0.75-0.03,1.49-0.13,2.26-0.2
			c-0.07-0.54-0.14-1.04-0.2-1.55c-0.19-1.52-0.38-3.04-0.56-4.57c-0.02-0.19-0.09-0.28-0.31-0.25c-2.01,0.24-4.02,0.29-6.04,0.27
			C-72.13,463.38-72.57,463.38-73.1,463.38z M-53.91,474.32c0.1-0.02,0.17-0.02,0.23-0.04c2.61-0.76,5.15-1.7,7.6-2.88
			c0.21-0.1,0.21-0.21,0.14-0.4c-0.43-1.19-0.85-2.4-1.29-3.59c-0.25-0.69-0.54-1.37-0.81-2.06c-0.08,0.02-0.12,0.03-0.16,0.05
			c-2.24,1.08-4.55,1.94-6.94,2.63c-0.23,0.07-0.23,0.17-0.18,0.37c0.34,1.34,0.66,2.69,0.99,4.03
			C-54.18,473.06-54.05,473.69-53.91,474.32z M-73.74,469.77c0.1-2.16,0.19-4.27,0.29-6.41c-0.56-0.04-1.09-0.06-1.6-0.12
			c-1.88-0.23-3.77-0.46-5.64-0.71c-0.22-0.03-0.29-0.02-0.34,0.21c-0.41,1.93-0.83,3.86-1.26,5.79c-0.04,0.18,0,0.25,0.18,0.28
			c0.26,0.04,0.51,0.1,0.77,0.14c1.7,0.22,3.4,0.46,5.1,0.66C-75.44,469.7-74.62,469.72-73.74,469.77z M-85.06,494.71
			c-0.01,0.05-0.02,0.09-0.02,0.13c0.05,1.5,0.09,3.01,0.13,4.51c0.01,0.23,0.16,0.24,0.32,0.26c1.92,0.28,3.84,0.59,5.77,0.82
			c1.38,0.17,2.77,0.23,4.15,0.34c0.13,0.01,0.26,0,0.38,0c0-1.59,0-3.11,0-4.64c0-0.17-0.06-0.24-0.24-0.25
			c-0.82-0.04-1.64-0.07-2.46-0.14c-1.19-0.1-2.38-0.21-3.56-0.37C-82.06,495.19-83.54,494.94-85.06,494.71z M-64.97,463.14
			c0.26,2.05,0.52,4.15,0.79,6.29c2.83-0.33,5.58-0.84,8.34-1.61c-0.62-2.08-1.23-4.12-1.81-6.07
			C-60.14,462.22-62.54,462.68-64.97,463.14z M-93.09,473.14c-2.51-0.99-4.92-2.17-7.2-3.64c-0.05,0.07-0.08,0.1-0.09,0.15
			c-0.58,1.79-1.15,3.59-1.73,5.38c-0.07,0.22,0.05,0.31,0.21,0.4c1.58,0.86,3.14,1.74,4.74,2.57c0.86,0.45,1.78,0.79,2.7,1.19
			C-94,477.16-93.55,475.17-93.09,473.14z M-52.15,493.54c-0.17,0.04-0.26,0.05-0.35,0.07c-3.2,0.86-6.45,1.46-9.73,1.85
			c-0.34,0.04-0.37,0.17-0.38,0.45c-0.01,1.37-0.04,2.74-0.07,4.11c0,0.11,0,0.22,0,0.34c0.17,0,0.3,0.02,0.43,0
			c1.44-0.22,2.88-0.39,4.31-0.68c1.77-0.35,3.52-0.79,5.28-1.19c0.21-0.05,0.26-0.15,0.27-0.35c0.01-0.43,0.07-0.86,0.09-1.29
			C-52.23,495.76-52.19,494.68-52.15,493.54z M-51.79,492.96c0.09-0.01,0.14,0,0.18-0.01c2.99-0.86,5.89-1.94,8.68-3.3
			c0.21-0.1,0.27-0.23,0.26-0.45c-0.05-1.03-0.08-2.07-0.14-3.11c-0.04-0.63-0.12-1.26-0.18-1.92c-0.11,0.04-0.17,0.05-0.23,0.08
			c-2.75,1.32-5.6,2.38-8.53,3.22c-0.25,0.07-0.24,0.21-0.23,0.41c0.07,1.58,0.14,3.16,0.2,4.74
			C-51.79,492.73-51.79,492.84-51.79,492.96z M-82.75,468.68c0.46-2.11,0.9-4.18,1.34-6.19c-2.29-0.65-4.55-1.3-6.89-1.96
			c-0.75,1.92-1.52,3.91-2.3,5.91C-88.01,467.42-85.42,468.13-82.75,468.68z M-102.33,475.62c-0.35,1.86-0.68,3.63-1.02,5.39
			c-0.04,0.23,0.06,0.35,0.24,0.46c2.17,1.4,4.47,2.54,6.84,3.54c0.3,0.13,0.6,0.23,0.89,0.34c0.28-1.96,0.56-3.86,0.84-5.79
			C-97.22,478.51-99.79,477.25-102.33,475.62z M-91.1,466.66c-2.28-0.89-4.46-1.97-6.53-3.3c-0.07,0.12-0.12,0.2-0.17,0.29
			c-0.74,1.67-1.46,3.35-2.22,5.02c-0.17,0.37-0.06,0.52,0.25,0.71c1.58,0.99,3.24,1.85,4.94,2.62c0.61,0.27,1.23,0.52,1.84,0.77
			C-92.35,470.71-91.73,468.71-91.1,466.66z M-48.17,464.94c-0.93-1.96-1.84-3.89-2.71-5.73c-2.2,0.83-4.29,1.63-6.4,2.42
			c0.59,1.99,1.2,4.03,1.81,6.08C-52.96,467-50.55,466.11-48.17,464.94z M-85.32,499.51c-0.03-0.43-0.06-0.75-0.07-1.08
			c-0.03-1.19-0.06-2.37-0.08-3.56c0-0.24-0.1-0.31-0.31-0.35c-3.1-0.62-6.14-1.47-9.1-2.58c-0.12-0.05-0.25-0.08-0.47-0.15
			c0.11,1.57,0.22,3.05,0.3,4.54c0.02,0.31,0.16,0.43,0.42,0.51c1.74,0.55,3.47,1.15,5.22,1.66
			C-88.07,498.89-86.72,499.17-85.32,499.51z M-38.89,467.29c-2.07,1.7-4.2,3.05-6.43,4.17c0.54,1.98,1.07,3.93,1.61,5.91
			c0.16-0.08,0.34-0.17,0.52-0.27c2.13-1.11,4.13-2.41,5.99-3.92c0.14-0.11,0.27-0.21,0.19-0.42
			C-37.62,470.97-38.24,469.18-38.89,467.29z M-45.44,471.08c0.45-0.24,0.9-0.47,1.33-0.71c1.63-0.91,3.18-1.95,4.65-3.12
			c0.25-0.2,0.34-0.35,0.18-0.67c-0.39-0.77-0.72-1.57-1.11-2.34c-0.47-0.94-0.98-1.87-1.49-2.85c-1.82,1.5-3.76,2.71-5.78,3.74
			C-46.92,467.13-46.19,469.08-45.44,471.08z M-103.41,481.77c-0.03,0.12-0.07,0.22-0.07,0.31c-0.1,1.54-0.19,3.09-0.3,4.63
			c-0.02,0.28,0.09,0.43,0.31,0.57c2.15,1.36,4.4,2.52,6.75,3.5c0.34,0.14,0.68,0.28,1.14,0.46c0-0.96-0.02-1.83,0.01-2.69
			c0.02-0.77,0.07-1.55,0.17-2.32c0.05-0.36-0.05-0.5-0.37-0.62c-1.96-0.75-3.84-1.66-5.66-2.69
			C-102.1,482.56-102.74,482.17-103.41,481.77z M-88.64,460.32c-0.97-0.45-1.94-0.86-2.89-1.34c-0.94-0.48-1.85-1.01-2.79-1.53
			c-0.09,0.14-0.19,0.28-0.27,0.43c-0.91,1.61-1.8,3.21-2.72,4.82c-0.14,0.24-0.1,0.36,0.14,0.51c1.75,1.09,3.58,2.03,5.49,2.81
			c0.24,0.1,0.48,0.19,0.71,0.28C-90.18,464.27-89.41,462.3-88.64,460.32z M-42.66,483.52c0.56-0.3,1.11-0.59,1.64-0.89
			c1.81-1.01,3.53-2.17,5.14-3.49c0.19-0.15,0.29-0.28,0.23-0.57c-0.2-0.87-0.33-1.76-0.52-2.64c-0.18-0.84-0.41-1.67-0.62-2.51
			c-0.07,0.02-0.11,0.03-0.14,0.05c-2.03,1.66-4.23,3.04-6.55,4.25c-0.07,0.04-0.14,0.19-0.12,0.28c0.16,0.93,0.35,1.85,0.51,2.78
			C-42.94,481.68-42.81,482.58-42.66,483.52z M-63.15,500.83c-3.56,0.41-7.14,0.46-10.75,0.39c0.04,1.41,0.07,2.76,0.1,4.13
			c0.15,0.01,0.24,0.02,0.33,0.02c1.41,0,2.83,0.05,4.24-0.01c1.88-0.07,3.75-0.22,5.63-0.34c0.21-0.01,0.26-0.1,0.27-0.3
			c0.05-0.75,0.14-1.5,0.18-2.25C-63.13,501.95-63.15,501.41-63.15,500.83z M-73.04,462.98c2.58,0.05,5.08,0.04,7.62-0.28
			c-0.31-2.07-0.62-4.11-0.92-6.09c-2.14,0.08-4.22,0.15-6.36,0.23C-72.81,458.83-72.93,460.88-73.04,462.98z M-42.66,489.96
			c-0.21,0.1-0.33,0.16-0.46,0.21c-0.64,0.29-1.28,0.59-1.93,0.87c-2.09,0.89-4.23,1.65-6.42,2.27c-0.19,0.05-0.34,0.1-0.34,0.37
			c-0.02,1.18-0.08,2.37-0.12,3.55c-0.01,0.34-0.03,0.67-0.05,1.06c0.47-0.14,0.9-0.26,1.33-0.4c2.51-0.78,4.95-1.73,7.32-2.87
			c0.2-0.1,0.32-0.2,0.34-0.45c0.03-0.49,0.12-0.97,0.15-1.46C-42.77,492.09-42.72,491.07-42.66,489.96z M-73.43,462.95
			c0.11-2.08,0.23-4.13,0.34-6.14c-2.09-0.24-4.13-0.48-6.24-0.73c-0.51,1.97-1.04,3.97-1.57,6.01
			C-78.41,462.56-75.96,462.85-73.43,462.95z M-74.24,505.35c0.04-0.08,0.06-0.1,0.06-0.12c-0.03-1.28-0.07-2.55-0.1-3.83
			c0-0.18-0.08-0.23-0.25-0.24c-1.27-0.08-2.55-0.14-3.81-0.28c-1.69-0.19-3.38-0.43-5.07-0.66c-0.48-0.06-0.95-0.16-1.42-0.23
			c-0.02,0.07-0.04,0.09-0.03,0.11c0.14,1.29,0.27,2.58,0.43,3.86c0.01,0.09,0.18,0.2,0.28,0.22c0.68,0.13,1.36,0.26,2.05,0.36
			c1.38,0.19,2.77,0.38,4.16,0.53C-76.72,505.2-75.48,505.26-74.24,505.35z M-65.94,456.51c-0.01,0.05-0.02,0.07-0.02,0.1
			c0.29,1.9,0.59,3.79,0.86,5.7c0.05,0.35,0.17,0.38,0.45,0.33c0.41-0.07,0.84-0.11,1.25-0.19c1.75-0.35,3.49-0.71,5.24-1.06
			c0.27-0.05,0.33-0.15,0.23-0.41c-0.66-1.79-1.3-3.59-1.94-5.38c-0.07-0.2-0.17-0.23-0.38-0.18c-1.09,0.25-2.19,0.5-3.3,0.72
			C-64.34,456.27-65.14,456.38-65.94,456.51z M-50.52,459.03c0.88,1.87,1.79,3.8,2.71,5.74c2.04-1.05,3.97-2.23,5.75-3.76
			c-1.16-1.79-2.31-3.55-3.4-5.24C-47.2,456.89-48.85,457.95-50.52,459.03z M-52.45,498.85c-0.11,0.02-0.18,0.03-0.25,0.05
			c-1.54,0.35-3.07,0.76-4.61,1.05c-1.69,0.32-3.41,0.55-5.12,0.8c-0.2,0.03-0.26,0.1-0.27,0.3c-0.05,0.94-0.12,1.88-0.19,2.83
			c-0.02,0.35-0.04,0.69-0.07,1.07c0.91-0.12,1.76-0.21,2.62-0.35c2.33-0.38,4.64-0.84,6.92-1.47c0.27-0.07,0.37-0.2,0.41-0.45
			c0.12-0.76,0.27-1.52,0.39-2.28C-52.54,499.89-52.5,499.38-52.45,498.85z M-85.4,454.38c-0.88,1.84-1.78,3.74-2.7,5.67
			c2.25,0.86,4.49,1.48,6.8,1.95c0.53-2.04,1.06-4.05,1.57-6.01C-81.6,455.47-83.46,454.94-85.4,454.38z M-102.56,475.04
			c0.07-0.12,0.1-0.16,0.11-0.2c0.56-1.75,1.11-3.51,1.68-5.25c0.08-0.25,0.06-0.37-0.17-0.52c-1.77-1.19-3.38-2.55-4.81-4.14
			c-0.06-0.07-0.13-0.12-0.2-0.19c-0.04,0.04-0.06,0.06-0.08,0.09c-0.69,1.7-1.37,3.39-2.04,5.09c-0.04,0.11,0.02,0.32,0.11,0.41
			c0.95,0.94,1.88,1.9,2.88,2.78C-104.29,473.79-103.42,474.38-102.56,475.04z M-100.55,468.85c0.85-1.93,1.69-3.82,2.54-5.75
			c-1.73-1.16-3.33-2.51-4.74-4.08c-0.06,0.05-0.09,0.07-0.1,0.09c-0.94,1.67-1.89,3.35-2.82,5.03c-0.04,0.08,0,0.26,0.07,0.35
			c0.24,0.29,0.5,0.56,0.76,0.83C-103.54,466.64-102.11,467.81-100.55,468.85z M-42.27,489.29c0.12-0.05,0.21-0.08,0.3-0.13
			c2.27-1.18,4.42-2.54,6.41-4.14c0.33-0.27,0.46-0.54,0.42-0.95c-0.13-1.44-0.23-2.88-0.35-4.32c-0.01-0.1-0.05-0.2-0.09-0.33
			c-0.26,0.21-0.48,0.39-0.71,0.56c-1.89,1.47-3.92,2.73-6.06,3.81c-0.19,0.09-0.3,0.19-0.28,0.43c0.11,1.34,0.19,2.68,0.28,4.02
			C-42.31,488.58-42.29,488.92-42.27,489.29z M-51.1,458.76c-1.08-1.87-2.15-3.7-3.17-5.47c-1.82,0.69-3.55,1.34-5.27,2
			c0.69,1.93,1.4,3.89,2.12,5.88C-55.27,460.55-53.18,459.79-51.1,458.76z M-95.46,496.52c-0.07-1.53-0.14-3.01-0.19-4.49
			c-0.01-0.3-0.1-0.43-0.38-0.54c-2.63-1.03-5.15-2.29-7.55-3.8c-0.06-0.04-0.14-0.06-0.19-0.08c0,0.42-0.03,0.82,0.01,1.21
			c0.09,1.11,0.21,2.22,0.31,3.33c0.02,0.23,0.14,0.36,0.32,0.48c1.82,1.18,3.74,2.18,5.71,3.06
			C-96.78,495.98-96.12,496.24-95.46,496.52z M-94.91,497.18c-0.01,0.08-0.02,0.13-0.01,0.17c0.23,1.21,0.47,2.43,0.7,3.64
			c0.05,0.29,0.2,0.44,0.48,0.54c2.21,0.82,4.46,1.49,6.74,2.04c0.7,0.17,1.41,0.31,2.12,0.47c0.01-0.08,0.03-0.11,0.02-0.14
			c-0.14-1.23-0.29-2.46-0.4-3.7c-0.03-0.31-0.19-0.35-0.42-0.41c-2.09-0.53-4.18-1.05-6.26-1.62
			C-92.93,497.9-93.89,497.52-94.91,497.18z M-103.78,481.05c0.04-0.16,0.08-0.25,0.1-0.35c0.33-1.65,0.64-3.3,0.99-4.94
			c0.06-0.26,0-0.38-0.2-0.53c-1.11-0.85-2.24-1.68-3.31-2.59c-0.72-0.62-1.36-1.34-2.04-2.03c-0.04,0.07-0.08,0.1-0.09,0.14
			c-0.4,1.62-0.78,3.24-1.19,4.86c-0.08,0.31,0.04,0.48,0.22,0.69c1.12,1.23,2.34,2.37,3.67,3.38
			C-105.03,480.14-104.41,480.58-103.78,481.05z M-94.68,457.19c-0.72-0.56-1.46-1.09-2.15-1.68c-0.69-0.59-1.32-1.24-2.05-1.92
			c-1.24,1.67-2.47,3.33-3.71,5c1.44,1.64,3.03,2.99,4.76,4.15C-96.77,460.86-95.72,459.03-94.68,457.19z M-85.77,454.24
			c-1.56-0.79-3.09-1.57-4.71-2.39c-1.18,1.68-2.4,3.42-3.64,5.19c1.83,1.19,3.71,2.12,5.65,2.88
			C-87.55,457.99-86.65,456.09-85.77,454.24z M-38.77,466.64c0.05-0.04,0.11-0.08,0.17-0.13c1.49-1.34,2.83-2.81,3.88-4.52
			c0.06-0.1,0.05-0.31-0.02-0.42c-0.8-1.35-1.62-2.69-2.44-4.03c-0.16-0.26-0.35-0.5-0.56-0.8c-1.08,1.7-2.39,3.13-3.81,4.38
			C-40.61,462.98-39.7,464.8-38.77,466.64z M-50.75,458.58c1.75-0.9,3.42-1.93,4.98-3.24c-1.36-1.67-2.7-3.32-4-4.91
			c-1.44,0.93-2.8,1.81-4.15,2.68C-52.88,454.89-51.83,456.72-50.75,458.58z M-34.35,462.28c-0.06,0.03-0.09,0.03-0.1,0.05
			c-1.12,1.74-2.48,3.26-4.04,4.61c-0.15,0.13-0.11,0.23-0.06,0.38c0.6,1.62,1.19,3.24,1.78,4.86c0.06,0.15,0.1,0.31,0.17,0.53
			c0.54-0.52,1.03-0.97,1.5-1.44c1.08-1.09,2.04-2.27,2.85-3.57c0.06-0.1,0.12-0.26,0.08-0.37
			C-32.76,465.59-33.51,463.92-34.35,462.28z M-43.1,495.36c-0.17,0.08-0.28,0.12-0.38,0.17c-0.78,0.35-1.54,0.75-2.34,1.04
			c-1.97,0.72-3.96,1.38-5.95,2.07c-0.17,0.06-0.29,0.11-0.32,0.33c-0.09,0.85-0.21,1.69-0.33,2.53c-0.06,0.46-0.15,0.91-0.23,1.42
			c0.72-0.22,1.38-0.42,2.03-0.63c2.15-0.7,4.25-1.53,6.28-2.53c0.12-0.06,0.27-0.17,0.31-0.28
			C-43.6,498.15-43.31,496.8-43.1,495.36z M-41.78,460.75c0.05-0.03,0.08-0.05,0.1-0.07c1.38-1.21,2.59-2.57,3.59-4.11
			c0.11-0.17,0.06-0.29-0.05-0.42c-0.88-1.09-1.74-2.2-2.63-3.29c-0.35-0.43-0.74-0.82-1.11-1.22c-0.05,0.03-0.07,0.03-0.07,0.04
			c-0.9,1.34-1.94,2.56-3.17,3.61c-0.17,0.14-0.08,0.24,0.01,0.37c0.46,0.65,0.92,1.3,1.36,1.97
			C-43.09,458.67-42.45,459.7-41.78,460.75z M-109.68,476.62c0.01-0.01-0.02,0.02-0.03,0.05c-0.22,1.6-0.39,3.21-0.36,4.83
			c0,0.13,0.08,0.28,0.17,0.38c1.58,1.82,3.41,3.35,5.38,4.72c0.09,0.06,0.18,0.1,0.34,0.19c0-0.2-0.01-0.34,0-0.47
			c0.12-1.52,0.23-3.04,0.36-4.56c0.02-0.2-0.04-0.3-0.2-0.42c-1.58-1.08-3.09-2.26-4.45-3.61
			C-108.85,477.35-109.27,476.99-109.68,476.62z M-73.75,505.74c-0.01,0.11-0.02,0.17-0.02,0.23c0.04,0.96,0.09,1.91,0.13,2.87
			c0.01,0.22,0.15,0.22,0.3,0.22c0.56,0.01,1.12,0.01,1.68,0.02c2.53,0.03,5.06-0.1,7.58-0.35c0.18-0.02,0.25-0.08,0.28-0.26
			c0.07-0.55,0.18-1.1,0.25-1.65c0.06-0.46,0.1-0.92,0.15-1.41C-66.87,505.73-70.29,505.91-73.75,505.74z M-35.21,485.27
			c-0.03,0.01-0.06,0.02-0.09,0.04c-2.11,1.71-4.39,3.13-6.8,4.37c-0.1,0.05-0.17,0.23-0.18,0.35c-0.05,0.83-0.07,1.66-0.12,2.49
			c-0.04,0.69-0.11,1.38-0.17,2.08c0.06-0.01,0.1-0.01,0.13-0.03c2.39-1.22,4.65-2.66,6.71-4.38c0.09-0.08,0.17-0.22,0.18-0.34
			c0.12-0.91,0.25-1.83,0.33-2.74C-35.17,486.51-35.21,485.9-35.21,485.27z M-72.3,450.54c-0.12,1.91-0.25,3.85-0.37,5.8
			c2.11,0.15,4.16-0.01,6.26-0.2c-0.35-1.97-0.7-3.88-1.03-5.77C-69.08,450.43-70.66,450.49-72.3,450.54z M-72.69,450.48
			c-0.14-0.01-0.25-0.03-0.36-0.04c-1.35-0.16-2.71-0.31-4.06-0.48c-0.22-0.03-0.33,0.02-0.4,0.24c-0.26,0.84-0.54,1.66-0.8,2.5
			c-0.3,0.96-0.59,1.93-0.89,2.92c2.05,0.4,4.07,0.63,6.13,0.72C-72.94,454.37-72.81,452.44-72.69,450.48z M-94.45,456.82
			c1.24-1.77,2.46-3.51,3.64-5.2c-1.12-0.96-2.24-1.94-3.44-2.97c-1.41,1.49-2.86,3.03-4.33,4.58
			C-97.32,454.67-95.94,455.82-94.45,456.82z M-84.32,504.56c0.01,0.14,0,0.23,0.02,0.32c0.2,0.87,0.41,1.74,0.59,2.62
			c0.06,0.31,0.23,0.42,0.51,0.48c2.74,0.51,5.5,0.83,8.28,1.01c0.29,0.02,0.58,0,0.89,0c-0.06-1.1-0.11-2.15-0.17-3.25
			C-77.58,505.57-80.95,505.2-84.32,504.56z M-60.13,454.98c-0.05-0.14-0.07-0.22-0.11-0.3c-0.71-1.65-1.43-3.29-2.12-4.95
			c-0.12-0.29-0.25-0.31-0.53-0.25c-1.3,0.27-2.6,0.51-3.91,0.75c-0.22,0.04-0.28,0.1-0.24,0.33c0.32,1.72,0.63,3.44,0.92,5.16
			c0.05,0.32,0.17,0.4,0.47,0.35c1.07-0.19,2.15-0.34,3.22-0.55C-61.66,455.37-60.91,455.16-60.13,454.98z M-31.91,468.01
			c-0.06,0.03-0.07,0.03-0.08,0.04c-1.22,1.84-2.67,3.48-4.35,4.93c-0.08,0.07-0.11,0.24-0.08,0.35c0.28,1.22,0.58,2.43,0.86,3.64
			c0.12,0.52,0.2,1.06,0.3,1.62c0.08-0.06,0.13-0.08,0.17-0.12c1.68-1.5,3.18-3.16,4.38-5.08c0.08-0.13,0.1-0.33,0.06-0.48
			c-0.21-0.96-0.42-1.93-0.67-2.88C-31.48,469.34-31.71,468.68-31.91,468.01z M-85.15,453.95c0.11,0.05,0.15,0.08,0.21,0.1
			c1.64,0.47,3.29,0.93,4.93,1.42c0.38,0.11,0.48-0.02,0.58-0.35c0.46-1.53,0.94-3.06,1.41-4.58c0.07-0.22,0.14-0.45,0.19-0.61
			c-1.38-0.42-2.72-0.84-4.07-1.23c-0.08-0.02-0.25,0.07-0.31,0.15c-0.46,0.73-0.9,1.47-1.33,2.22
			C-84.08,452.01-84.61,452.96-85.15,453.95z M-53.15,503.57c-0.03-0.02-0.07-0.05-0.1-0.07c-0.59,0.15-1.18,0.32-1.77,0.44
			c-1.85,0.37-3.7,0.73-5.55,1.07c-0.68,0.13-1.37,0.19-2.06,0.28c-0.26,0.03-0.41,0.1-0.42,0.43c-0.01,0.46-0.11,0.92-0.17,1.39
			c-0.07,0.5-0.14,1-0.21,1.52c0.09,0,0.13,0,0.17-0.01c1.27-0.19,2.55-0.33,3.8-0.58c1.68-0.33,3.34-0.74,5.01-1.12
			c0.11-0.03,0.26-0.13,0.29-0.23C-53.8,505.64-53.48,504.6-53.15,503.57z M-54.56,452.95c-0.05-0.12-0.06-0.15-0.08-0.18
			c-1.13-1.6-2.25-3.21-3.37-4.81c-0.11-0.16-0.2-0.15-0.37-0.08c-0.72,0.31-1.44,0.62-2.17,0.9c-0.51,0.19-1.03,0.35-1.55,0.52
			c0.02,0.07,0.03,0.11,0.04,0.15c0.75,1.73,1.5,3.46,2.24,5.2c0.08,0.19,0.16,0.2,0.33,0.14c0.59-0.2,1.2-0.35,1.78-0.58
			C-56.66,453.81-55.62,453.37-54.56,452.95z M-105.85,454.1c-0.02,0.04-0.04,0.08-0.06,0.12c-0.97,1.44-1.94,2.89-2.92,4.33
			c-0.14,0.2-0.14,0.38-0.06,0.6c0.64,1.7,1.57,3.23,2.7,4.64c0.04,0.05,0.1,0.08,0.12,0.09c1-1.76,1.99-3.51,2.99-5.27
			C-104.2,457.28-105.12,455.78-105.85,454.1z M-94.59,501.23c-0.03-0.18-0.03-0.26-0.05-0.33c-0.22-1.15-0.47-2.29-0.64-3.45
			c-0.06-0.39-0.21-0.53-0.53-0.66c-2.51-0.99-4.93-2.19-7.22-3.63c-0.07-0.04-0.15-0.07-0.26-0.13c0.01,0.13,0,0.22,0.03,0.31
			c0.31,1.21,0.61,2.42,0.94,3.62c0.05,0.17,0.19,0.37,0.34,0.46c1.48,0.84,2.96,1.7,4.47,2.49
			C-96.58,500.4-95.61,500.77-94.59,501.23z M-45.48,455.06c0.84-0.54,2.72-2.69,3.28-3.77c-1.44-1.53-2.97-2.97-4.53-4.26
			c-0.93,1.06-1.84,2.1-2.73,3.13C-48.17,451.76-46.82,453.41-45.48,455.06z M-99.1,453.23c-0.97-1.17-1.77-2.48-2.33-3.94
			c-0.06,0.04-0.11,0.06-0.14,0.09c-1.27,1.39-2.54,2.77-3.8,4.17c-0.07,0.08-0.08,0.29-0.03,0.39c0.5,1,1,2.01,1.55,2.99
			c0.27,0.48,0.65,0.9,0.97,1.35C-101.6,456.59-100.36,454.93-99.1,453.23z M-90.16,451.43c0.92,0.71,3.73,2.12,4.62,2.36
			c1.01-1.77,2.02-3.54,3.02-5.28c-1.17-0.6-2.33-1.19-3.57-1.82C-87.42,448.24-88.78,449.82-90.16,451.43z M-109.25,459.34
			c-0.06,0.07-0.1,0.11-0.12,0.14c-0.71,1.52-1.43,3.04-2.13,4.57c-0.07,0.15-0.04,0.38,0.02,0.55c0.5,1.37,1.19,2.65,2.03,3.85
			c0.3,0.43,0.63,0.85,0.98,1.31c0.05-0.1,0.07-0.14,0.08-0.17c0.68-1.68,1.37-3.37,2.04-5.05c0.04-0.1,0.01-0.26-0.05-0.35
			c-0.18-0.26-0.39-0.51-0.58-0.76C-107.91,462.18-108.66,460.84-109.25,459.34z M-93.96,501.87c0.03,0.12,0.04,0.17,0.06,0.22
			c0.36,0.96,0.72,1.91,1.07,2.87c0.09,0.24,0.24,0.38,0.49,0.47c2.26,0.83,4.56,1.53,6.92,2.06c0.45,0.1,0.9,0.2,1.39,0.3
			c-0.03-0.15-0.05-0.24-0.07-0.33c-0.19-0.85-0.41-1.7-0.56-2.56c-0.06-0.34-0.18-0.47-0.51-0.53c-2.69-0.54-5.32-1.27-7.91-2.19
			C-93.37,502.09-93.64,501.99-93.96,501.87z M-50.09,450.05c-1.54-1.53-3.04-3.02-4.5-4.47c-1.1,0.71-2.12,1.38-3.13,2.04
			c1.18,1.68,2.36,3.37,3.56,5.08C-52.73,451.97-51.39,451.13-50.09,450.05z M-34.73,484.25c0.06-0.03,0.09-0.03,0.1-0.04
			c1.73-1.51,3.24-3.21,4.45-5.16c0.08-0.12,0.12-0.3,0.1-0.45c-0.11-1.51-0.23-3.02-0.35-4.52c-0.01-0.07-0.06-0.13-0.09-0.21
			c-0.05,0.07-0.08,0.1-0.11,0.14c-1.19,1.83-2.66,3.41-4.3,4.85c-0.22,0.2-0.25,0.39-0.21,0.66c0.1,0.73,0.18,1.47,0.24,2.2
			C-34.82,482.54-34.78,483.38-34.73,484.25z M-98.84,452.92c1.48-1.56,2.94-3.1,4.34-4.58c-0.64-1.08-1.29-2.17-1.94-3.27
			c-0.19,0.14-0.43,0.29-0.64,0.47c-1.29,1.07-2.57,2.15-3.84,3.23c-0.09,0.07-0.15,0.27-0.12,0.37
			C-100.55,450.54-99.77,451.78-98.84,452.92z M-103.87,492.18c-0.01-0.2-0.01-0.28-0.02-0.36c-0.11-1.41-0.22-2.81-0.31-4.22
			c-0.02-0.25-0.09-0.38-0.29-0.52c-1.98-1.34-3.82-2.84-5.42-4.63c-0.03-0.04-0.08-0.06-0.14-0.1c-0.01,0.08-0.02,0.12-0.02,0.17
			c0.12,1.39,0.23,2.79,0.38,4.18c0.03,0.25,0.18,0.53,0.35,0.7c1.06,1.05,2.13,2.09,3.24,3.08
			C-105.42,491.08-104.66,491.58-103.87,492.18z M-93.88,448.3c1.04,1.17,2.16,2.13,3.37,2.93c1.39-1.62,2.75-3.21,4.09-4.77
			c-0.83-0.72-1.68-1.45-2.59-2.24C-90.6,445.55-92.23,446.92-93.88,448.3z M-37.76,455.98c0.05-0.07,0.07-0.1,0.08-0.13
			c0.73-1.31,1.24-2.7,1.51-4.17c0.05-0.26,0.04-0.5-0.18-0.71c-1.22-1.21-2.43-2.43-3.65-3.64c-0.05-0.05-0.12-0.07-0.2-0.12
			c-0.25,1.39-0.7,2.67-1.39,3.86c-0.11,0.2-0.01,0.29,0.1,0.41c0.75,0.87,1.52,1.73,2.26,2.61
			C-38.74,454.68-38.28,455.31-37.76,455.98z M-43.53,499.34c0.1-0.04,0.14-0.05,0.18-0.07c2.19-1.14,4.27-2.45,6.17-4.03
			c0.13-0.11,0.28-0.22,0.34-0.37c0.52-1.32,0.88-2.69,1.16-4.16c-0.14,0.1-0.22,0.15-0.3,0.21c-0.9,0.64-1.77,1.34-2.7,1.92
			c-1.22,0.77-2.5,1.45-3.75,2.18c-0.12,0.07-0.23,0.24-0.26,0.38c-0.17,0.78-0.3,1.56-0.46,2.34
			C-43.26,498.26-43.4,498.77-43.53,499.34z M-34.36,461.37c0.07-0.1,0.12-0.17,0.16-0.25c0.79-1.45,1.35-2.97,1.61-4.6
			c0.04-0.26,0-0.46-0.14-0.66c-0.61-0.89-1.21-1.79-1.84-2.67c-0.36-0.5-0.76-0.97-1.18-1.5c-0.04,0.14-0.07,0.2-0.08,0.27
			c-0.28,1.49-0.81,2.88-1.57,4.19c-0.11,0.19-0.04,0.3,0.06,0.45c0.82,1.28,1.64,2.57,2.45,3.86
			C-34.71,460.75-34.55,461.05-34.36,461.37z M-111.83,464.99c-0.01,0.03-0.05,0.08-0.06,0.13c-0.37,1.33-0.74,2.67-1.12,4
			c-0.12,0.45-0.15,0.87,0.04,1.32c0.52,1.27,1.14,2.48,1.92,3.61c0.34,0.49,0.71,0.97,1.1,1.5c0.06-0.16,0.09-0.24,0.11-0.32
			c0.4-1.58,0.79-3.17,1.18-4.76c0.03-0.14-0.01-0.33-0.09-0.45c-0.5-0.72-1.07-1.4-1.52-2.15
			C-110.84,466.95-111.31,465.96-111.83,464.99z M-44.19,500.29c-0.04-0.03-0.07-0.05-0.11-0.08c-0.05,0.02-0.1,0.03-0.15,0.05
			c-2.61,1.23-5.3,2.22-8.07,3.03c-0.12,0.04-0.25,0.19-0.29,0.31c-0.14,0.44-0.23,0.9-0.36,1.35c-0.16,0.57-0.35,1.14-0.53,1.73
			c0.09-0.01,0.14-0.01,0.2-0.02c2.59-0.78,5.13-1.71,7.57-2.91c0.1-0.05,0.22-0.14,0.26-0.25
			C-45.17,502.43-44.68,501.36-44.19,500.29z M-54.2,445.21c1.47,1.5,2.95,3.02,4.45,4.55c0.98-0.86,1.89-1.86,2.65-3.1
			c-1.74-1.26-3.45-2.51-5.11-3.72C-52.95,443.78-53.62,444.55-54.2,445.21z M-46.5,446.64c1.48,1.38,3.01,2.81,4.56,4.26
			c0.65-1.16,1.12-2.39,1.34-3.72c0.03-0.2,0.07-0.36-0.14-0.51c-1.45-1.07-2.88-2.15-4.32-3.23c-0.08-0.06-0.18-0.11-0.22-0.12
			C-45.69,444.44-46.09,445.53-46.5,446.64z M-32.16,456.8c-0.04,0.02-0.06,0.02-0.06,0.03c-0.06,0.25-0.12,0.5-0.18,0.75
			c-0.34,1.4-0.88,2.72-1.58,3.98c-0.07,0.12-0.1,0.33-0.05,0.46c0.69,1.61,1.4,3.21,2.11,4.81c0.02,0.04,0.06,0.08,0.11,0.14
			c0.91-1.58,1.53-3.23,1.82-5c0.04-0.23,0.08-0.49,0.01-0.7C-30.58,459.72-31.32,458.25-32.16,456.8z M-63.88,509.08
			c-3.29,0.38-6.47,0.43-9.71,0.36c0.06,0.65,0.11,1.25,0.16,1.85c0.04,0.48,0.03,0.49,0.52,0.5c2.74,0.06,5.47-0.01,8.19-0.33
			c0.09-0.01,0.22-0.07,0.24-0.13C-64.28,510.61-64.09,509.89-63.88,509.08z M-94.14,447.99c1.66-1.39,3.29-2.76,4.88-4.09
			c-0.48-0.81-0.95-1.62-1.44-2.45c0.04,0,0.03,0,0.02,0c-1.73,1.07-3.46,2.13-5.19,3.21c-0.06,0.04-0.11,0.2-0.08,0.28
			C-95.51,446.06-94.9,447.08-94.14,447.99z M-71.85,444.68c-0.14,1.86-0.28,3.62-0.41,5.38c0.08,0.02,0.11,0.04,0.14,0.04
			c1.43-0.04,2.87-0.09,4.3-0.14c0.26-0.01,0.26-0.16,0.22-0.35c-0.3-1.41-0.6-2.82-0.9-4.23c-0.05-0.24-0.06-0.57-0.21-0.7
			c-0.15-0.12-0.47-0.02-0.71-0.01c-0.05,0-0.09,0-0.14,0C-70.31,444.68-71.06,444.68-71.85,444.68z M-75.39,444.37
			c-0.63,1.7-1.26,3.41-1.91,5.16c1.57,0.29,3.09,0.49,4.64,0.52c0.14-1.81,0.27-3.57,0.41-5.32
			C-73.3,444.62-74.3,444.5-75.39,444.37z M-62.67,449.07c-0.23-0.47-0.41-0.85-0.6-1.22c-0.62-1.2-1.24-2.4-1.87-3.6
			c-0.05-0.1-0.22-0.24-0.3-0.22c-0.93,0.18-1.86,0.38-2.81,0.58c0,0.01-0.01,0.04-0.01,0.07c0.35,1.68,0.7,3.35,1.06,5.03
			c0.01,0.06,0.16,0.14,0.24,0.14c0.37-0.03,0.75-0.07,1.11-0.14C-64.8,449.51-63.77,449.29-62.67,449.07z M-83.39,508.34
			c-0.02,0.03-0.05,0.06-0.07,0.09c0.3,0.69,0.59,1.39,0.92,2.08c0.06,0.12,0.24,0.24,0.38,0.26c1.21,0.2,2.42,0.42,3.63,0.57
			c1.46,0.17,2.92,0.27,4.38,0.4c0.12,0.01,0.24,0,0.36,0c-0.06-0.73-0.12-1.41-0.16-2.09c-0.01-0.19-0.1-0.25-0.28-0.26
			c-1.25-0.09-2.5-0.15-3.74-0.28c-1.31-0.14-2.61-0.34-3.92-0.52C-82.39,508.51-82.89,508.42-83.39,508.34z M-75.78,444.31
			c-0.9-0.27-1.75-0.54-2.61-0.78c-0.09-0.03-0.27,0.07-0.34,0.16c-0.72,1.01-1.44,2.02-2.15,3.04c-0.34,0.49-0.65,1-0.97,1.51
			c0.06,0.04,0.09,0.07,0.12,0.08c1.26,0.37,2.53,0.73,3.79,1.1c0.21,0.06,0.3-0.03,0.37-0.23c0.28-0.82,0.57-1.63,0.87-2.44
			C-76.4,445.93-76.08,445.12-75.78,444.31z M-105.69,453.18c0.04,0.01,0.08,0.03,0.12,0.04c0.02-0.05,0.04-0.12,0.07-0.16
			c1.25-1.36,2.51-2.71,3.75-4.08c0.08-0.09,0.1-0.28,0.08-0.42c-0.13-0.91-0.29-1.81-0.42-2.72c-0.05-0.34-0.01-0.69-0.01-1.11
			c-1.44,1.16-2.72,2.34-3.9,3.62c-0.06,0.07-0.1,0.18-0.1,0.28c0,0.86-0.04,1.73,0.03,2.59
			C-106.01,451.88-105.82,452.53-105.69,453.18z M-93.3,505.05c0.01-0.06,0.03-0.08,0.02-0.1c-0.37-1.02-0.74-2.05-1.12-3.07
			c-0.05-0.12-0.19-0.24-0.31-0.3c-1.79-0.86-3.6-1.69-5.39-2.56c-0.63-0.31-1.21-0.7-1.88-1.09c0.05,0.14,0.07,0.23,0.11,0.31
			c0.47,0.97,0.93,1.95,1.42,2.91c0.1,0.19,0.28,0.36,0.46,0.48c1.99,1.29,4.1,2.35,6.29,3.26
			C-93.57,504.95-93.44,504.99-93.3,505.05z M-35.08,489.63c0.15-0.12,0.24-0.19,0.32-0.26c1.42-1.3,2.7-2.72,3.76-4.33
			c0.2-0.3,0.44-0.62,0.49-0.96c0.19-1.33,0.31-2.67,0.45-4c0.01-0.1-0.01-0.2-0.02-0.34c-0.07,0.05-0.1,0.06-0.11,0.08
			c-1.23,1.82-2.7,3.41-4.34,4.86c-0.12,0.1-0.2,0.3-0.21,0.46c-0.06,0.81-0.07,1.62-0.13,2.42
			C-34.92,488.23-35.01,488.9-35.08,489.63z M-64.85,443.9c0.01,0.04,0.02,0.07,0.04,0.1c0.8,1.57,1.61,3.13,2.41,4.7
			c0.1,0.19,0.21,0.2,0.38,0.14c0.66-0.23,1.34-0.44,1.99-0.69c0.54-0.2,1.06-0.45,1.62-0.69c-0.09-0.13-0.14-0.21-0.21-0.29
			c-1.1-1.3-2.19-2.59-3.29-3.88c-0.36-0.42-0.36-0.41-0.89-0.2C-63.48,443.38-64.17,443.64-64.85,443.9z M-96.98,441.29
			c-0.02,0.01-0.07,0.03-0.12,0.06c-1.41,0.94-2.82,1.88-4.24,2.81c-0.28,0.18-0.37,0.41-0.36,0.71c0.02,0.67,0.01,1.35,0.08,2.01
			c0.06,0.54,0.21,1.07,0.34,1.66c0.11-0.09,0.15-0.12,0.2-0.16c1.31-1.09,2.61-2.21,3.95-3.26c0.46-0.36,0.65-0.63,0.48-1.26
			C-96.88,443.04-96.88,442.16-96.98,441.29z M-46.89,446.31c0.51-0.9,0.88-1.86,1.09-2.9c0.07-0.32-0.01-0.47-0.28-0.62
			c-1.44-0.78-2.86-1.59-4.3-2.38c-0.24-0.13-0.51-0.24-0.74-0.34c-0.31,0.86-0.62,1.7-0.91,2.5
			C-50.33,443.81-48.63,445.05-46.89,446.31z M-54.38,507.42c-0.04-0.02-0.07-0.03-0.11-0.05c-1.21,0.27-2.4,0.58-3.62,0.81
			c-1.58,0.3-3.18,0.55-4.78,0.78c-0.6,0.09-0.61,0.05-0.74,0.63c-0.14,0.59-0.28,1.18-0.43,1.81c0.35-0.05,0.66-0.1,0.98-0.14
			c2.37-0.29,4.7-0.79,7.01-1.39c0.13-0.03,0.3-0.08,0.36-0.17C-55.25,508.95-54.82,508.18-54.38,507.42z M-85.7,446.35
			c0.05,0.05,0.08,0.08,0.12,0.1c1.04,0.53,2.09,1.06,3.13,1.59c0.21,0.11,0.27-0.03,0.37-0.17c0.91-1.35,1.83-2.69,2.75-4.04
			c0.12-0.17,0.24-0.34,0.36-0.5c-0.69-0.36-1.35-0.69-1.99-1.05c-0.23-0.13-0.35-0.11-0.52,0.06c-1.31,1.24-2.62,2.47-3.93,3.71
			C-85.52,446.14-85.6,446.24-85.7,446.35z M-110.51,481.14c0.03-0.08,0.05-0.11,0.05-0.14c0.14-1.55,0.29-3.1,0.41-4.65
			c0.01-0.16-0.05-0.36-0.15-0.49c-1.23-1.49-2.25-3.12-2.99-4.91c-0.02-0.06-0.07-0.1-0.12-0.2c-0.02,0.09-0.04,0.13-0.04,0.17
			c-0.11,1.03-0.25,2.05-0.32,3.08c-0.04,0.66-0.13,1.33,0.13,1.99c0.63,1.61,1.46,3.1,2.5,4.48
			C-110.87,480.7-110.7,480.9-110.51,481.14z M-106.55,449.07c-0.05-0.02-0.1-0.04-0.14-0.06c-0.89,1.21-1.78,2.42-2.69,3.62
			c-0.26,0.34-0.35,0.71-0.34,1.11c0.03,0.94,0.05,1.89,0.14,2.83c0.05,0.56,0.23,1.12,0.37,1.75c0.1-0.11,0.13-0.14,0.15-0.18
			c1-1.47,2.01-2.93,3-4.4c0.06-0.09,0.07-0.26,0.04-0.37c-0.39-1.26-0.58-2.55-0.54-3.87
			C-106.54,449.36-106.55,449.21-106.55,449.07z M-54.99,445.3c-0.29-0.26-0.54-0.49-0.81-0.7c-1.29-1.02-2.59-2.05-3.89-3.06
			c-0.08-0.06-0.25-0.11-0.32-0.07c-0.63,0.4-1.24,0.83-1.88,1.26c0.46,0.52,0.94,1.03,1.4,1.57c0.76,0.91,1.5,1.83,2.26,2.74
			c0.07,0.08,0.25,0.18,0.31,0.15C-56.89,446.67-55.92,446.06-54.99,445.3z M-109.4,487.99c-0.03,0.01-0.06,0.03-0.09,0.04
			c0.32,1.08,0.63,2.17,0.98,3.25c0.12,0.37,0.27,0.77,0.52,1.06c1.46,1.71,3.16,3.15,5,4.43c0.05,0.03,0.11,0.05,0.13,0.06
			c-0.28-1.25-0.57-2.5-0.83-3.75c-0.06-0.28-0.18-0.45-0.41-0.61c-1.43-0.97-2.78-2.03-4.03-3.22
			C-108.56,488.82-108.98,488.41-109.4,487.99z M-29.58,462.32c-0.06,0.03-0.07,0.03-0.07,0.04c-0.36,1.79-1.02,3.46-1.93,5.03
			c-0.05,0.08-0.04,0.21-0.01,0.31c0.37,1.34,0.75,2.69,1.12,4.03c0.04,0.14,0.07,0.29,0.1,0.43c0.03,0.14,0.07,0.28,0.12,0.5
			c0.86-1.54,1.46-3.08,1.76-4.72c0.08-0.46,0.16-0.96,0.07-1.41c-0.17-0.95-0.44-1.88-0.69-2.81
			C-29.25,463.25-29.43,462.79-29.58,462.32z M-81.66,441.9c-0.52-0.45-1.06-0.92-1.67-1.46c-1.73,1.14-3.5,2.3-5.27,3.46
			c0,0.05,0,0.1,0,0.16c0.83,0.71,1.65,1.41,2.46,2.1C-84.61,444.7-83.13,443.29-81.66,441.9z M-91.17,438.52
			c0.02,0-0.03-0.01-0.06,0.01c-1.7,0.79-3.39,1.58-5.09,2.39c-0.09,0.04-0.18,0.19-0.18,0.29c0.01,0.68,0.02,1.36,0.08,2.04
			c0.03,0.36,0.16,0.71,0.26,1.1c0.73-0.48,1.39-0.95,2.08-1.37c1.01-0.62,2.04-1.2,3.05-1.81c0.1-0.06,0.23-0.2,0.22-0.28
			C-90.91,440.1-91.04,439.32-91.17,438.52z M-92.35,505.88c0.05,0.12,0.07,0.2,0.11,0.26c0.44,0.66,0.87,1.33,1.33,1.98
			c0.11,0.15,0.3,0.29,0.48,0.34c1.88,0.6,3.76,1.18,5.66,1.75c0.57,0.17,1.16,0.27,1.77,0.4c-0.28-0.74-0.56-1.42-0.8-2.11
			c-0.07-0.22-0.19-0.3-0.39-0.35c-1.66-0.41-3.33-0.8-4.98-1.25C-90.23,506.62-91.25,506.24-92.35,505.88z M-45.5,439.51
			c-0.03,0.03-0.05,0.05-0.08,0.08c0.29,1,0.33,2.02,0.29,3.04c0,0.1,0.1,0.24,0.19,0.31c1.43,1.07,2.87,2.13,4.31,3.19
			c0.08,0.06,0.17,0.12,0.28,0.19c0.14-1.04-0.08-2.96-0.45-3.92c-0.04-0.11-0.14-0.21-0.24-0.27c-0.73-0.49-1.46-0.98-2.2-1.44
			C-44.09,440.28-44.8,439.9-45.5,439.51z M-52.54,442.71c-1.96-1.09-3.83-2.13-5.66-3.15c-0.49,0.57-0.92,1.07-1.33,1.54
			c1.63,1.3,3.24,2.59,4.94,3.94C-53.94,444.31-53.28,443.56-52.54,442.71z M-36.07,450.68c0.02-0.11,0.04-0.16,0.04-0.21
			c0.05-1.14-0.02-2.28-0.3-3.39c-0.12-0.48-0.17-1-0.6-1.38c-0.7-0.61-1.35-1.26-2.04-1.87c-0.45-0.39-0.93-0.75-1.42-1.15
			c-0.01,0.1-0.03,0.13-0.02,0.16c0.33,1.14,0.38,2.31,0.32,3.48c-0.01,0.25,0.06,0.41,0.24,0.59c1.09,1.05,2.17,2.12,3.24,3.19
			C-36.45,450.28-36.28,450.47-36.07,450.68z M-45.04,503.27c0.04-0.01,0.08-0.02,0.11-0.04c2-1.05,3.9-2.26,5.64-3.71
			c0.19-0.16,0.36-0.36,0.48-0.57c0.51-0.94,1-1.89,1.49-2.84c0.04-0.07,0.05-0.16,0.1-0.32c-0.13,0.1-0.19,0.14-0.25,0.19
			c-1.76,1.37-3.63,2.55-5.61,3.56c-0.43,0.22-0.7,0.48-0.86,0.95C-44.26,501.45-44.66,502.35-45.04,503.27z M-84.51,438.51
			c-1.93,0.88-3.85,1.76-5.79,2.64c0.37,0.97,0.83,1.77,1.42,2.46c1.79-1.18,3.56-2.34,5.31-3.49
			C-83.86,439.62-84.16,439.11-84.51,438.51z M-45.7,442.55c0.09-1.04-0.02-1.99-0.27-2.94c-0.08-0.29-0.23-0.46-0.5-0.58
			c-1.17-0.48-2.32-0.98-3.49-1.46c-0.43-0.18-0.89-0.3-1.3-0.43c0.05,0.75,0.11,1.46,0.14,2.17c0.01,0.23,0.07,0.35,0.29,0.47
			c1.22,0.62,2.42,1.25,3.63,1.89C-46.71,441.94-46.23,442.24-45.7,442.55z M-110.11,453.95c-0.04-0.01-0.08-0.02-0.12-0.03
			c-0.47,0.92-0.95,1.83-1.4,2.76c-0.24,0.5-0.51,1.01-0.61,1.54c-0.21,1.15-0.15,2.31,0.03,3.46c0.1,0.63,0.25,1.25,0.39,1.96
			c0.09-0.13,0.12-0.16,0.14-0.2c0.71-1.48,1.43-2.97,2.13-4.45c0.06-0.13,0.07-0.31,0.03-0.44c-0.33-1.15-0.57-2.31-0.58-3.52
			C-110.11,454.67-110.11,454.31-110.11,453.95z M-55.05,509.56c0.09-0.02,0.19-0.03,0.28-0.06c2.05-0.61,4.04-1.37,5.99-2.26
			c0.53-0.24,0.98-0.56,1.32-1.03c0.4-0.55,0.8-1.11,1.2-1.66c0.04-0.06,0.06-0.13,0.1-0.21c-0.06,0.01-0.08,0-0.1,0.01
			c-2.41,1.14-4.9,2.05-7.46,2.78c-0.09,0.03-0.19,0.1-0.23,0.18C-54.33,508.05-54.68,508.79-55.05,509.56z M-52.44,442.36
			c0.38-0.68,0.64-1.38,0.82-2.13c0.07-0.31-0.02-0.42-0.28-0.53c-1.13-0.45-2.25-0.92-3.38-1.35c-0.71-0.27-1.45-0.5-2.16-0.74
			c-0.21,0.58-0.4,1.11-0.58,1.63c0.94,0.5,1.88,0.98,2.8,1.49C-54.3,441.25-53.39,441.8-52.44,442.36z M-84.82,436.46
			c-1.68,0.52-3.35,1.01-5.02,1.55c-0.87,0.28-0.88,0.31-0.84,1.22c0.03,0.52,0.14,1.04,0.22,1.55c2.01-0.91,3.94-1.79,5.85-2.66
			C-84.67,437.61-84.74,437.09-84.82,436.46z M-95.87,437.57c-0.05,0.02-0.11,0.03-0.15,0.05c-1.3,0.72-2.61,1.44-3.91,2.17
			c-0.11,0.06-0.21,0.18-0.27,0.3c-0.34,0.72-0.69,1.43-0.98,2.17c-0.19,0.47-0.28,0.98-0.41,1.47c0.15-0.01,0.23-0.06,0.3-0.11
			c1.27-0.84,2.53-1.7,3.82-2.51c0.41-0.26,0.72-0.5,0.73-1.02c0-0.21,0.09-0.42,0.16-0.62C-96.34,438.84-96.11,438.22-95.87,437.57
			z M-32.48,455.46c0.09-1.23,0.03-2.37-0.23-3.5c-0.16-0.71-0.27-1.43-0.73-2.03c-0.58-0.76-1.15-1.53-1.74-2.29
			c-0.23-0.3-0.5-0.57-0.77-0.88c-0.02,0.08-0.04,0.11-0.03,0.12c0.33,1.34,0.41,2.69,0.3,4.06c-0.01,0.13,0.06,0.28,0.15,0.39
			c0.5,0.65,1.03,1.28,1.52,1.94C-33.5,453.97-33.02,454.68-32.48,455.46z M-90.33,435.61c-0.06,0.01-0.16,0.01-0.25,0.04
			c-1.08,0.35-2.17,0.67-3.24,1.05c-1.51,0.54-1.55,0.59-2.11,2.09c-0.2,0.53-0.33,1.07-0.5,1.66c0.12-0.02,0.15-0.02,0.18-0.03
			c1.69-0.78,3.39-1.55,5.08-2.34c0.07-0.03,0.14-0.11,0.17-0.18C-90.78,437.14-90.56,436.39-90.33,435.61z M-36.19,494.29
			c2.68-2.35,4.83-5.01,5.29-8.65c0.01-0.01-0.03,0-0.04,0.02c-1.18,1.68-2.57,3.16-4.12,4.5c-0.08,0.07-0.14,0.2-0.17,0.31
			c-0.19,0.81-0.36,1.62-0.55,2.42C-35.9,493.37-36.06,493.83-36.19,494.29z M-113.62,476.88c-0.13,3.62,1.15,6.71,3.45,9.5
			c0-0.14,0-0.22,0-0.3c-0.1-1.35-0.19-2.7-0.3-4.05c-0.01-0.14-0.08-0.28-0.16-0.39c-0.74-1.09-1.5-2.17-2.22-3.27
			C-113.16,477.91-113.36,477.39-113.62,476.88z M-51.52,439.42c0.07-0.8-0.02-1.55-0.26-2.28c-0.04-0.11-0.19-0.22-0.31-0.26
			c-1.05-0.29-2.1-0.58-3.16-0.83c-0.75-0.18-1.52-0.31-2.3-0.47c0.04,0.48,0.11,0.9,0.11,1.33c0,0.24,0.07,0.33,0.29,0.41
			c0.97,0.32,1.94,0.65,2.89,1C-53.34,438.66-52.46,439.04-51.52,439.42z M-28.14,468.33c-0.02,0.03-0.04,0.06-0.05,0.09
			c-0.4,1.68-1.04,3.26-1.91,4.75c-0.05,0.08-0.06,0.2-0.05,0.29c0.13,1.17,0.27,2.35,0.4,3.52c0.04,0.35,0.06,0.71,0.09,1.12
			C-27.86,475.01-27.4,471.77-28.14,468.33z M-52.69,434.3c0.36,0.68,0.72,1.34,1.04,2.01c0.11,0.23,0.25,0.37,0.49,0.46
			c1.51,0.58,3,1.17,4.51,1.76c0.09,0.03,0.18,0.06,0.33,0.11c-0.47-1.14-1.08-2.1-1.84-2.98c-0.05-0.06-0.13-0.1-0.2-0.13
			C-49.77,435.01-51.22,434.59-52.69,434.3z M-68.78,444.25c-0.07-0.31-0.12-0.55-0.18-0.79c-0.3-1.21-0.6-2.42-0.91-3.63
			c-0.03-0.1-0.15-0.26-0.23-0.26c-0.42,0-0.84,0.04-1.3,0.07c-0.14,1.54-0.28,3.09-0.43,4.73
			C-70.79,444.33-69.82,444.29-68.78,444.25z M-73.33,512.17c0.06,0.35,0.14,0.63,0.16,0.92c0.02,0.35,0.19,0.42,0.51,0.42
			c1.44-0.03,2.87-0.02,4.31-0.07c0.95-0.03,1.91-0.13,2.86-0.21c0.09-0.01,0.21-0.07,0.25-0.14c0.21-0.38,0.41-0.77,0.65-1.24
			C-67.54,512.19-70.4,512.23-73.33,512.17z M-71.78,439.6c-0.4-0.05-0.78-0.07-1.15-0.14c-0.21-0.04-0.3,0.02-0.38,0.21
			c-0.57,1.31-1.16,2.61-1.74,3.92c-0.05,0.11-0.08,0.23-0.12,0.35c0.07,0.03,0.11,0.06,0.15,0.06c0.77,0.1,1.53,0.2,2.3,0.28
			c0.53,0.06,0.53,0.04,0.55-0.5c0-0.07,0.01-0.14,0.02-0.2C-72.03,442.27-71.91,440.96-71.78,439.6z M-100.86,440.45
			c-0.14,0.09-0.21,0.12-0.27,0.17c-0.57,0.45-1.16,0.89-1.72,1.36c-0.86,0.72-1.69,1.46-2.1,2.56c-0.2,0.53-0.44,1.05-0.63,1.58
			c-0.17,0.49-0.28,0.99-0.41,1.49c0.03,0.01,0.05,0.03,0.08,0.04c0.08-0.07,0.16-0.15,0.24-0.22c1.12-1.01,2.23-2.02,3.36-3.02
			c0.18-0.16,0.28-0.33,0.34-0.56c0.22-0.84,0.46-1.68,0.71-2.52C-101.17,441.06-101.02,440.8-100.86,440.45z M-65.54,443.69
			c0.02-0.04,0.04-0.09,0.06-0.13c-0.87-1.39-1.75-2.79-2.63-4.18c-0.04-0.06-0.16-0.1-0.23-0.09c-0.39,0.07-0.77,0.16-1.16,0.23
			c-0.01,0.02-0.02,0.03-0.02,0.04c0.36,1.48,0.72,2.95,1.09,4.42c0.02,0.07,0.17,0.17,0.24,0.16
			C-67.3,444.01-66.42,443.84-65.54,443.69z M-90.63,437.87c0.27-0.09,0.43-0.16,0.61-0.21c1.69-0.5,3.38-0.99,5.06-1.49
			c0.09-0.03,0.23-0.09,0.25-0.17c0.16-0.47,0.3-0.95,0.45-1.44c-0.09,0-0.18-0.01-0.26,0c-1.36,0.21-2.72,0.39-4.07,0.63
			c-1.18,0.21-1.19,0.24-1.63,1.38C-90.38,436.96-90.48,437.38-90.63,437.87z M-99.7,502.37c0.21,0.29,0.39,0.55,0.59,0.8
			c0.68,0.84,1.33,1.71,2.32,2.24c1.11,0.59,2.19,1.2,3.31,1.78c0.61,0.32,1.25,0.57,1.96,0.88c-0.05-0.12-0.06-0.16-0.09-0.2
			c-0.4-0.66-0.8-1.33-1.22-1.97c-0.1-0.16-0.26-0.31-0.43-0.39c-0.88-0.4-1.79-0.74-2.65-1.16
			C-97.17,503.72-98.4,503.04-99.7,502.37z M-78.29,443.05c0.01,0.05,0.03,0.09,0.04,0.14c0.78,0.21,1.57,0.41,2.35,0.64
			c0.27,0.08,0.35-0.03,0.44-0.25c0.31-0.76,0.63-1.51,0.96-2.25c0.29-0.65,0.59-1.3,0.89-1.97c-0.35-0.1-0.68-0.18-0.99-0.3
			c-0.19-0.07-0.29-0.02-0.41,0.11c-0.23,0.27-0.48,0.52-0.7,0.79C-76.58,440.99-77.43,442.02-78.29,443.05z M-67.73,439.13
			c0.86,1.42,1.7,2.82,2.54,4.21c0.04,0.07,0.19,0.15,0.26,0.13c0.77-0.26,1.53-0.54,2.31-0.82c-0.04-0.1-0.05-0.14-0.07-0.16
			c-1.27-1.22-2.55-2.45-3.83-3.67c-0.06-0.06-0.19-0.09-0.27-0.06C-67.11,438.87-67.42,439-67.73,439.13z M-73.52,513.47
			c-0.06-0.44-0.1-0.81-0.18-1.17c-0.02-0.08-0.18-0.16-0.28-0.17c-0.71-0.06-1.43-0.07-2.15-0.15c-1.47-0.16-2.93-0.34-4.4-0.52
			c-0.52-0.07-1.04-0.16-1.57-0.25c-0.02,0.03-0.04,0.05-0.06,0.08c0.3,0.36,0.59,0.74,0.91,1.08c0.12,0.13,0.32,0.22,0.5,0.25
			c1.56,0.24,3.12,0.47,4.69,0.67C-75.23,513.39-74.4,513.41-73.52,513.47z M-47.27,435.87c-0.03,0.04-0.06,0.08-0.09,0.12
			c0.04,0.05,0.08,0.11,0.11,0.16c0.47,0.87,0.93,1.74,1.41,2.6c0.07,0.12,0.18,0.23,0.29,0.3c1.34,0.79,2.69,1.58,4.03,2.36
			c0.06,0.03,0.12,0.06,0.24,0.12c-0.51-1.24-1.18-2.3-1.97-3.29c-0.11-0.13-0.21-0.29-0.35-0.37
			C-44.81,437.2-46.04,436.53-47.27,435.87z M-75.27,438.83c-0.27-0.14-0.53-0.26-0.77-0.41c-0.15-0.1-0.25-0.09-0.39,0.02
			c-1.04,0.77-2.1,1.53-3.13,2.31c-0.46,0.34-0.89,0.72-1.4,1.15c0.71,0.35,1.36,0.65,2,0.97c0.22,0.11,0.33,0.06,0.48-0.13
			c0.75-0.95,1.52-1.88,2.28-2.81C-75.91,439.56-75.59,439.2-75.27,438.83z M-107.6,493.43c1.21,3.27,3.7,5.43,6.43,7.37
			c0-0.09-0.04-0.15-0.07-0.22c-0.4-0.88-0.81-1.75-1.18-2.65c-0.12-0.29-0.29-0.49-0.53-0.67c-0.87-0.64-1.75-1.28-2.58-1.96
			C-106.24,494.71-106.91,494.06-107.6,493.43z M-58.52,433.57c0.3,0.58,0.52,1.03,0.77,1.48c0.04,0.08,0.17,0.13,0.27,0.15
			c1.13,0.25,2.27,0.47,3.39,0.73c0.68,0.15,1.35,0.35,2.03,0.53c0.03-0.02,0.05-0.04,0.08-0.06c-0.27-0.47-0.54-0.93-0.8-1.4
			c-0.31-0.56-0.71-0.92-1.42-0.97C-55.62,433.91-57.03,433.72-58.52,433.57z M-112.79,459.68c-1.23,2.55-1.55,7.56-0.61,9.23
			c0.02-0.05,0.05-0.08,0.06-0.12c0.42-1.44,0.84-2.88,1.25-4.32c0.03-0.1,0.07-0.23,0.03-0.33
			C-112.53,462.69-112.73,461.2-112.79,459.68z M-60.21,441.17c-0.5-0.34-0.9-0.64-1.32-0.9c-1.2-0.74-2.41-1.47-3.63-2.19
			c-0.1-0.06-0.29-0.08-0.39-0.03c-0.24,0.12-0.45,0.29-0.66,0.44c1.35,1.3,2.69,2.58,4.06,3.91
			C-61.54,442.01-60.91,441.61-60.21,441.17z M-76.64,438.04c-0.12-0.11-0.26-0.21-0.37-0.34c-0.18-0.21-0.36-0.23-0.62-0.1
			c-1.67,0.85-3.35,1.67-5.03,2.51c-0.07,0.04-0.14,0.1-0.26,0.18c0.56,0.47,1.09,0.92,1.58,1.33
			C-79.74,440.4-78.2,439.23-76.64,438.04z M-64.75,513.13c0.35-0.04,0.66-0.05,0.97-0.11c1.9-0.38,3.81-0.75,5.71-1.16
			c0.85-0.18,1.31-0.88,1.91-1.51c-0.13,0-0.18-0.01-0.22,0c-2.51,0.67-5.05,1.13-7.63,1.43c-0.08,0.01-0.2,0.05-0.23,0.12
			C-64.41,512.29-64.57,512.69-64.75,513.13z M-94.74,436.54c0.02,0.02,0.03,0.04,0.05,0.06c0.07-0.02,0.14-0.04,0.21-0.06
			c1.42-0.46,2.85-0.91,4.27-1.38c0.15-0.05,0.29-0.16,0.39-0.28c0.3-0.37,0.58-0.76,0.88-1.13c0.23-0.28,0.48-0.53,0.76-0.83
			c-0.1-0.01-0.16-0.02-0.21-0.01c-1.02,0.22-2.04,0.44-3.05,0.68c-0.32,0.08-0.68,0.18-0.93,0.39c-0.54,0.45-1.03,0.97-1.51,1.49
			C-94.19,435.8-94.45,436.18-94.74,436.54z M-58.65,439.49c-0.01-0.05-0.01-0.11-0.02-0.16c-1.95-0.79-3.9-1.58-5.84-2.36
			c-0.22,0.27-0.39,0.47-0.54,0.65c1.72,1.08,3.42,2.14,5.18,3.25C-59.47,440.42-59.06,439.96-58.65,439.49z M-89.34,434.9
			c0.1,0.01,0.13,0.02,0.16,0.01c1.47-0.24,2.93-0.52,4.41-0.69c0.61-0.07,1-0.28,1.31-0.79c0.17-0.27,0.41-0.49,0.64-0.75
			c-0.08-0.02-0.11-0.04-0.14-0.04c-1.29,0.02-2.57,0.04-3.86,0.07c-0.21,0.01-0.47,0.01-0.62,0.12
			C-88.16,433.42-88.78,434.09-89.34,434.9z M-32.28,451.81c-0.02,0.05-0.03,0.07-0.03,0.09c0.28,1.35,0.33,2.7,0.2,4.07
			c-0.01,0.1,0.05,0.22,0.1,0.31c0.67,1.31,1.35,2.63,2.02,3.94c0.03,0.06,0.07,0.12,0.15,0.25
			C-29.65,457.24-30.68,454.45-32.28,451.81z M-77.58,437.09c-0.04-0.07-0.11-0.15-0.14-0.25c-0.11-0.34-0.31-0.35-0.62-0.26
			c-1.18,0.36-2.38,0.69-3.56,1.05c-0.72,0.22-1.43,0.5-2.22,0.77c0.32,0.54,0.62,1.03,0.89,1.5
			C-81.31,438.95-79.45,438.02-77.58,437.09z M-64.31,436.61c1.98,0.81,3.94,1.6,5.95,2.42c0.18-0.5,0.35-1,0.53-1.51
			c-0.12-0.06-0.17-0.09-0.22-0.1c-1.81-0.44-3.61-0.88-5.42-1.3C-64.11,435.98-64.12,436.02-64.31,436.61z M-60.33,431.85
			c0.5,0.47,0.93,0.88,1.37,1.29c0.06,0.05,0.16,0.08,0.25,0.09c0.51,0.03,1.02,0.04,1.53,0.09c1.08,0.1,2.16,0.22,3.25,0.33
			c-0.01-0.03-0.02-0.08-0.05-0.1c-0.72-0.59-1.43-1.19-2.16-1.77c-0.09-0.07-0.23-0.08-0.35-0.09c-0.59-0.01-1.19-0.03-1.78,0
			C-58.94,431.71-59.61,431.78-60.33,431.85z M-84.25,437.98c2.11-0.65,4.14-1.28,6.2-1.93c-0.02-0.18-0.05-0.39-0.09-0.62
			c-0.93,0.12-1.82,0.21-2.71,0.36c-1.1,0.18-2.18,0.4-3.28,0.59c-0.2,0.04-0.28,0.13-0.26,0.32
			C-84.34,437.12-84.29,437.55-84.25,437.98z M-90.07,509.08c0.68,0.61,1.29,1.23,2.1,1.53c1.11,0.4,2.23,0.77,3.36,1.11
			c0.9,0.27,1.82,0.47,2.81,0.72c-0.33-0.49-0.61-0.91-0.9-1.31c-0.05-0.07-0.18-0.09-0.28-0.11c-0.95-0.22-1.91-0.41-2.85-0.67
			C-87.21,509.96-88.59,509.53-90.07,509.08z M-48.9,434.88c0.02-0.02,0.03-0.03,0.05-0.05c-0.46-0.41-0.89-0.84-1.37-1.22
			c-0.76-0.59-1.46-1.29-2.47-1.43c-0.38-0.05-0.75-0.16-1.13-0.23c-0.49-0.08-0.99-0.14-1.54-0.21c0.07,0.1,0.08,0.13,0.11,0.15
			c0.66,0.6,1.31,1.19,1.97,1.78c0.08,0.07,0.19,0.12,0.29,0.15c0.47,0.11,0.95,0.2,1.43,0.32
			C-50.69,434.38-49.8,434.63-48.9,434.88z M-57.79,437.09c-0.02-0.29-0.03-0.49-0.06-0.69c-0.13-0.84-0.13-0.84-0.96-1
			c-0.07-0.01-0.13-0.02-0.2-0.03c-1.04-0.11-2.08-0.23-3.12-0.32c-0.65-0.06-1.31-0.07-1.97-0.1c-0.04,0.61-0.02,0.63,0.47,0.74
			c1.31,0.29,2.62,0.57,3.92,0.88C-59.09,436.71-58.48,436.9-57.79,437.09z M-86.75,432.18c0.02,0.04,0.04,0.09,0.06,0.13
			c0.12,0,0.25,0,0.37,0c0.9-0.02,1.8-0.1,2.7-0.05c0.84,0.05,1.58-0.02,2.21-0.63c0.23-0.23,0.55-0.36,0.83-0.54
			c-0.01-0.03-0.01-0.07-0.02-0.1c-0.79-0.11-1.58-0.24-2.38-0.33c-0.36-0.04-0.79-0.16-1.07-0.02
			C-84.97,431.09-85.85,431.65-86.75,432.18z M-105.48,444.63c-1.55,1.26-4.16,6.12-3.92,7.2c0.93-1.14,1.9-2.31,2.85-3.48
			c0.08-0.1,0.11-0.25,0.14-0.38c0.07-0.33,0.11-0.67,0.2-1C-105.98,446.2-105.73,445.43-105.48,444.63z M-40.01,500.65
			c-1.66,1.21-3.41,2.28-5.24,3.21c-0.13,0.07-0.24,0.2-0.33,0.32c-0.43,0.62-0.84,1.24-1.26,1.87c-0.04,0.06-0.06,0.12-0.09,0.18
			C-44.27,504.78-41.76,503.18-40.01,500.65z M-37.09,444.98c-0.48-1.85-3.91-5.89-5.2-6.14c0.05,0.08,0.09,0.14,0.13,0.21
			c0.45,0.86,0.9,1.73,1.36,2.59c0.12,0.22,0.27,0.44,0.45,0.6c0.66,0.56,1.35,1.08,2.01,1.64
			C-37.92,444.23-37.52,444.6-37.09,444.98z M-99.42,438.91c1.28-0.64,2.58-1.29,3.88-1.95c0.08-0.04,0.15-0.13,0.21-0.21
			c0.58-0.73,1.17-1.45,1.75-2.18c0.08-0.1,0.18-0.19,0.3-0.32C-95.97,435.07-97.92,436.72-99.42,438.91z M-77.92,434.43
			c-1.78-0.14-3.55-0.08-5.32,0.02c-0.42,0.02-0.62,0.2-0.73,0.55c-0.11,0.32-0.21,0.64-0.31,0.93c1.94-0.28,3.82-0.54,5.69-0.81
			C-78.02,435.03-78.02,435.04-77.92,434.43z M-64.51,433.94c-0.03,0.03-0.06,0.07-0.08,0.1c0.17,0.18,0.33,0.48,0.53,0.51
			c0.55,0.09,1.11,0.05,1.67,0.1c0.88,0.07,1.77,0.15,2.65,0.24c0.51,0.05,1.01,0.12,1.51,0.18c0.02-0.03,0.05-0.05,0.07-0.08
			c-0.28-0.42-0.55-0.85-0.84-1.26c-0.05-0.07-0.18-0.1-0.27-0.1C-61.02,433.61-62.77,433.71-64.51,433.94z M-63,430.36
			c0.75,0.41,1.38,0.77,2.02,1.11c0.07,0.04,0.18,0.03,0.26,0.02c0.99-0.07,1.97-0.14,2.96-0.21c0.23-0.02,0.47,0,0.7,0
			c-0.05-0.11-0.1-0.17-0.16-0.2c-0.72-0.36-1.45-0.71-2.17-1.07c-0.42-0.21-0.84-0.32-1.31-0.19
			C-61.44,430.01-62.18,430.17-63,430.36z M-77.22,433.45c-0.05-0.03-0.08-0.05-0.1-0.06c-1.29-0.21-2.57-0.44-3.86-0.61
			c-1.05-0.14-1.05-0.12-1.75,0.65c-0.17,0.18-0.31,0.38-0.48,0.59c1.79,0,3.52-0.03,5.24,0.02
			C-77.66,434.05-77.45,433.81-77.22,433.45z M-65.43,432.96c0.29,0.3,0.46,0.66,0.95,0.6c1.23-0.14,2.47-0.2,3.7-0.29
			c0.42-0.03,0.84-0.04,1.27-0.07c-0.41-0.44-0.85-0.8-1.31-1.14c-0.09-0.06-0.23-0.09-0.34-0.07c-0.56,0.09-1.12,0.18-1.67,0.31
			C-63.7,432.5-64.57,432.73-65.43,432.96z M-83.11,430.11c0.01,0.02,0.02,0.05,0.04,0.07c1.01,0.19,2.02,0.38,3.03,0.56
			c0.05,0.01,0.12,0.01,0.17-0.01c0.76-0.31,1.51-0.62,2.36-0.97c-0.61-0.24-1.15-0.46-1.7-0.67c-0.34-0.13-0.68-0.13-1.02,0
			C-81.19,429.44-82.16,429.77-83.11,430.11z M-76.02,432.5c-1.11-0.39-2.17-0.74-3.22-1.13c-0.45-0.17-0.84-0.16-1.24,0.13
			c-0.38,0.27-0.78,0.51-1.18,0.76c0.12,0.1,0.21,0.12,0.29,0.13c1.28,0.19,2.57,0.33,3.83,0.59
			C-76.94,433.09-76.51,433-76.02,432.5z M-85.03,430.65c-0.01-0.02-0.01-0.05-0.02-0.07c-0.3,0.02-0.6,0.02-0.89,0.07
			c-0.68,0.12-1.4,0.16-2.02,0.43c-0.83,0.35-1.59,0.88-2.37,1.34c-0.31,0.19-0.6,0.41-0.9,0.62c0.07,0.05,0.11,0.04,0.16,0.03
			c0.81-0.17,1.62-0.36,2.43-0.5c0.61-0.11,1.23-0.16,1.7-0.65c0.22-0.23,0.53-0.39,0.8-0.57
			C-85.77,431.11-85.4,430.88-85.03,430.65z M-29.88,483.08c1.26-2.42,1.65-5.04,1.9-7.7c-0.05,0.03-0.07,0.06-0.09,0.1
			c-0.38,1.18-0.9,2.3-1.53,3.37c-0.04,0.08-0.08,0.17-0.08,0.26C-29.74,480.43-29.81,481.74-29.88,483.08z M-66.79,432.13
			c0.01,0.04,0.03,0.09,0.04,0.13c0.17,0.09,0.35,0.16,0.5,0.27c0.24,0.18,0.47,0.16,0.75,0.07c0.77-0.24,1.55-0.43,2.33-0.63
			c0.52-0.13,1.05-0.23,1.58-0.34c0.01-0.03,0.02-0.06,0.03-0.1c-0.64-0.3-1.28-0.6-1.93-0.88c-0.06-0.03-0.16-0.01-0.23,0.02
			C-64.75,431.16-65.77,431.64-66.79,432.13z M-66.28,429.34c0.93,0.29,1.74,0.54,2.55,0.78c0.08,0.03,0.18,0.06,0.26,0.03
			c0.82-0.24,1.63-0.49,2.46-0.74c-0.03-0.02-0.05-0.06-0.09-0.07c-0.92-0.26-1.83-0.52-2.75-0.76c-0.29-0.08-0.64-0.2-0.89-0.1
			C-65.26,428.69-65.73,429.03-66.28,429.34z M-74.57,431.92c0.02-0.04,0.04-0.08,0.06-0.12c-0.8-0.55-1.6-1.11-2.4-1.66
			c-0.05-0.03-0.14-0.05-0.19-0.03c-0.71,0.24-1.43,0.49-2.21,0.76c0.12,0.08,0.16,0.12,0.19,0.13c1.13,0.42,2.25,0.84,3.38,1.25
			c0.09,0.03,0.2,0.05,0.29,0.02C-75.15,432.17-74.86,432.04-74.57,431.92z M-49.18,507.95c-0.01-0.02-0.03-0.05-0.04-0.07
			c-0.04,0.01-0.08,0.02-0.12,0.04c-1.93,0.87-3.92,1.57-5.95,2.15c-0.09,0.02-0.19,0.05-0.24,0.12c-0.33,0.39-0.66,0.79-0.99,1.19
			C-53.94,510.51-51.32,509.75-49.18,507.95z M-109.09,490.96c0-0.08,0.01-0.12,0-0.15c-0.26-0.96-0.51-1.93-0.77-2.89
			c-0.08-0.29-0.13-0.62-0.31-0.84c-0.81-1.04-1.59-2.11-2.21-3.28c-0.02-0.05-0.04-0.09-0.07-0.14
			C-112.14,485.63-110.25,489.68-109.09,490.96z M-64.16,430.38c-0.52-0.15-0.98-0.31-1.44-0.42c-1.3-0.3-0.89-0.42-1.84,0.51
			c-0.37,0.36-0.7,0.77-1.06,1.17c0.09,0.04,0.12,0.06,0.15,0.07c0.99,0.36,0.99,0.35,1.9-0.16
			C-65.72,431.15-64.98,430.8-64.16,430.38z M-73.31,429.35c0.35,0.7,0.65,1.31,0.97,1.91c0.04,0.08,0.19,0.16,0.28,0.16
			c0.35,0.01,0.71,0,1.06-0.02c0.09-0.01,0.23-0.09,0.24-0.16c0.13-0.63,0.23-1.27,0.34-1.89
			C-71.37,429.35-72.3,429.35-73.31,429.35z M-72.66,431.47c-0.36-0.66-0.69-1.28-1.03-1.89c-0.03-0.06-0.14-0.13-0.21-0.12
			c-0.84,0.13-1.67,0.28-2.53,0.42c0.05,0.09,0.06,0.13,0.08,0.14c0.73,0.54,1.46,1.09,2.19,1.63c0.06,0.04,0.15,0.1,0.21,0.09
			C-73.54,431.67-73.13,431.57-72.66,431.47z M-70,429.28c-0.14,0.74-0.26,1.42-0.39,2.11c0.46,0.06,0.86,0.13,1.27,0.16
			c0.1,0.01,0.24-0.06,0.31-0.14c0.27-0.29,0.52-0.6,0.79-0.9c0.26-0.29,0.54-0.56,0.88-0.92C-68.14,429.48-69.04,429.39-70,429.28z
			 M-78.97,428.74c0.46,0.19,0.85,0.29,1.16,0.5c0.6,0.42,1.21,0.41,1.86,0.18c0.06-0.02,0.13-0.03,0.2-0.04
			c0.56-0.1,1.12-0.21,1.75-0.32c-0.24-0.29-0.45-0.53-0.65-0.77c-0.18-0.22-0.4-0.27-0.67-0.22c-0.71,0.12-1.41,0.22-2.12,0.35
			C-77.91,428.49-78.39,428.61-78.97,428.74z M-69.91,428.88c1,0.13,1.93,0.24,2.85,0.36c0.11,0.01,0.25,0.07,0.32,0.02
			c0.45-0.3,0.88-0.62,1.31-0.93c0-0.03,0-0.07,0-0.1c-1.33-0.13-2.65-0.25-3.98-0.37c-0.07-0.01-0.19,0.06-0.21,0.12
			C-69.73,428.25-69.81,428.56-69.91,428.88z M-33.34,491.99c-0.08,0.08-0.15,0.16-0.23,0.24c-0.6,0.64-1.15,1.33-1.81,1.91
			c-0.78,0.69-1.41,1.44-1.75,2.45c-0.18,0.55-0.5,1.06-0.77,1.62C-36.76,497.45-33.93,493.62-33.34,491.99z M-74.29,427.91
			c-0.01,0.04-0.01,0.08-0.02,0.13c0.13,0.16,0.29,0.3,0.38,0.47c0.22,0.43,0.52,0.54,1.01,0.48c0.78-0.09,1.57-0.06,2.35-0.09
			c0.1,0,0.26-0.05,0.28-0.11c0.1-0.3,0.17-0.6,0.27-1.01C-71.47,427.82-72.88,427.86-74.29,427.91z M-59.02,429.71
			c0.65,0.33,1.26,0.61,1.83,0.95c0.67,0.39,1.32,0.75,2.15,0.75c0.62,0,1.24,0.16,1.89,0.25
			C-54.45,430.58-57.47,429.57-59.02,429.71z M-50.36,432.98c0.05,0.04,0.1,0.09,0.14,0.13c0.68,0.63,1.35,1.26,2.03,1.88
			c0.18,0.16,0.39,0.31,0.61,0.41c0.89,0.43,1.79,0.84,2.69,1.26c0.06,0.03,0.13,0.05,0.25,0.09
			C-46.13,435.23-48.28,433.65-50.36,432.98z M-114.3,467.01c-0.37,0.69-0.24,5.96,0.22,6.98c0.02-0.15,0.03-0.24,0.04-0.34
			c0.12-1.04,0.24-2.08,0.36-3.12c0.03-0.24,0.11-0.49,0.06-0.71C-113.82,468.87-114.07,467.92-114.3,467.01z M-28.28,465.17
			c0.04-2.22-0.53-4.34-1.12-6.46c-0.02,0.5,0.05,1.01-0.03,1.49c-0.14,0.86,0.07,1.63,0.36,2.42
			C-28.77,463.46-28.54,464.32-28.28,465.17z M-86.06,430.19c0.63,0,1.27,0,1.9,0c0.07,0,0.15-0.05,0.22-0.08
			c0.7-0.29,1.4-0.6,2.1-0.88c0.32-0.13,0.65-0.24,0.97-0.36c-0.01-0.03-0.02-0.06-0.03-0.09
			C-82.76,428.72-84.38,429.59-86.06,430.19z M-70.93,436.17c-0.03,0-0.07,0.01-0.1,0.01c-0.1,1.01-0.21,2.01-0.32,3.07
			c0.48-0.03,0.88-0.05,1.31-0.08C-70.34,438.13-70.64,437.15-70.93,436.17z M-71.42,436.19c-0.03-0.01-0.06-0.02-0.09-0.03
			c-0.5,0.95-0.99,1.9-1.52,2.91c0.49,0.04,0.88,0.08,1.3,0.12C-71.63,438.16-71.53,437.18-71.42,436.19z M-70.41,436.18
			c-0.03,0.02-0.06,0.03-0.08,0.05c0.27,0.92,0.54,1.84,0.82,2.75c0.02,0.05,0.14,0.11,0.2,0.11c0.33-0.04,0.66-0.11,1.07-0.18
			C-69.1,437.95-69.75,437.07-70.41,436.18z M-103.44,499.6c1.23,1.48,2.56,2.84,4.12,3.98c-0.69-0.74-0.96-1.81-1.93-2.32
			c-0.32-0.17-0.59-0.42-0.88-0.64C-102.57,500.28-103.01,499.94-103.44,499.6z M-102.97,441.51c0.84-0.62,1.68-1.24,2.52-1.86
			c0.04-0.03,0.07-0.06,0.1-0.1c0.48-0.66,0.97-1.32,1.45-1.98c0.01-0.01-0.01-0.03-0.03-0.08
			C-100.4,438.72-101.8,440.01-102.97,441.51z M-95.25,506.76c0.63,0.62,4.63,2.91,5.25,2.96c-0.53-0.64-1.13-1.21-1.99-1.44
			c-0.35-0.09-0.67-0.27-1-0.43C-93.75,507.49-94.5,507.12-95.25,506.76z M-74.52,438.67c0.27,0.08,0.51,0.13,0.74,0.22
			c0.29,0.12,0.41,0.01,0.54-0.25c0.37-0.75,0.77-1.49,1.16-2.23c0.03-0.06,0.06-0.13,0.08-0.2c-0.02-0.02-0.05-0.04-0.07-0.05
			C-72.88,436.99-73.69,437.81-74.52,438.67z M-66.95,438.4c-1-0.78-1.93-1.5-2.86-2.23c0.53,0.86,1.1,1.67,1.68,2.46
			c0.05,0.07,0.2,0.11,0.28,0.09C-67.57,438.65-67.31,438.54-66.95,438.4z M-37.1,443.86c0.26,0.63,0.52,1.25,0.78,1.88
			c0.03,0.08,0.11,0.15,0.16,0.21c0.66,0.77,1.31,1.54,1.97,2.31c0.04,0.05,0.1,0.09,0.15,0.14
			C-34.86,446.74-35.95,445.27-37.1,443.86z M-111.78,455.98c0.43-0.77,0.79-1.59,1.3-2.31c0.6-0.84,0.53-1.82,0.82-2.73
			C-110.52,452.56-111.3,454.2-111.78,455.98z M-72.64,436.21c-0.02-0.03-0.05-0.06-0.07-0.09c-1.04,0.63-2.08,1.27-3.19,1.94
			c0.32,0.16,0.55,0.29,0.79,0.38c0.08,0.03,0.23-0.01,0.29-0.07C-74.09,437.65-73.37,436.93-72.64,436.21z M-69.15,436.06
			c-0.02,0.02-0.03,0.04-0.05,0.06c0.84,0.68,1.68,1.35,2.52,2.02c0.04,0.03,0.14,0.04,0.18,0.02c0.22-0.13,0.43-0.27,0.72-0.45
			C-66.95,437.13-68.05,436.59-69.15,436.06z M-72.9,513.96c-0.01,0.02-0.02,0.04-0.03,0.06c0.1,0.04,0.2,0.1,0.3,0.11
			c0.35,0.03,0.71,0.06,1.06,0.05c1.75-0.08,3.5-0.17,5.25-0.27c0.16-0.01,0.32-0.1,0.49-0.15c-0.01-0.01-0.01-0.02-0.02-0.03
			C-68.2,513.8-70.55,513.88-72.9,513.96z M-76.9,437.27c0.14,0.13,0.22,0.2,0.28,0.27c0.23,0.26,0.44,0.27,0.76,0.06
			c0.76-0.51,1.56-0.97,2.34-1.45c0.05-0.03,0.1-0.08,0.15-0.12c-0.01-0.03-0.02-0.05-0.04-0.08
			C-74.55,436.39-75.69,436.82-76.9,437.27z M-58.8,429.26c-0.92-0.51-4.35-1.23-4.77-1.05c0.98,0.3,1.99,0.56,2.96,0.92
			C-59.99,429.36-59.4,429.26-58.8,429.26z M-71.23,434.04c0.02,0,0.05-0.01,0.07-0.01c0.1-0.73,0.2-1.45,0.3-2.19
			c-0.42,0-0.8,0-1.23,0C-71.79,432.59-71.51,433.32-71.23,434.04z M-69.25,431.94c-0.34-0.04-0.63-0.08-0.92-0.12
			c-0.22-0.04-0.3,0.05-0.32,0.27c-0.02,0.26-0.08,0.51-0.11,0.77c-0.05,0.38-0.09,0.76-0.14,1.14c0.02,0,0.04,0.01,0.06,0.01
			C-70.23,433.34-69.76,432.68-69.25,431.94z M-68.53,435.81c-0.01,0.03-0.02,0.06-0.03,0.09c0.06,0.03,0.11,0.07,0.17,0.1
			c0.84,0.41,1.67,0.81,2.51,1.23c0.47,0.23,0.46,0.24,0.79-0.17c0.04-0.05,0.07-0.11,0.13-0.21
			C-66.18,436.5-67.36,436.16-68.53,435.81z M-73.58,432.06c0.65,0.65,1.26,1.27,1.91,1.92c-0.27-0.68-0.53-1.33-0.8-1.98
			c-0.02-0.06-0.12-0.13-0.18-0.12C-72.96,431.94-73.28,432.01-73.58,432.06z M-77.55,436.38c0.16,0.26,0.27,0.42,0.37,0.58
			c1.12-0.43,2.2-0.84,3.28-1.25c-0.01-0.03-0.02-0.05-0.02-0.08C-75.1,435.88-76.28,436.12-77.55,436.38z M-67.75,432.29
			c-0.35-0.09-0.64-0.17-0.93-0.24c-0.05-0.01-0.14,0.02-0.17,0.06c-0.45,0.61-0.89,1.23-1.34,1.85c0.02,0.01,0.04,0.03,0.06,0.04
			C-69.36,433.45-68.58,432.89-67.75,432.29z M-72.49,433.94c-0.46-0.49-1-1.06-1.54-1.63c-0.05-0.05-0.15-0.08-0.21-0.06
			c-0.26,0.08-0.52,0.18-0.84,0.3C-74.14,433.05-73.26,433.52-72.49,433.94z M-68.08,435.45c-0.01,0.03-0.01,0.05-0.02,0.08
			c1.12,0.33,2.24,0.66,3.39,1c0.07-0.2,0.12-0.38,0.2-0.6C-65.73,435.76-66.91,435.6-68.08,435.45z M-74.27,435.3
			c0-0.02-0.01-0.03-0.01-0.05c-0.03-0.01-0.07-0.02-0.1-0.02c-1.03,0.05-2.06,0.1-3.1,0.14c-0.17,0.01-0.25,0.07-0.22,0.25
			c0.02,0.12,0.03,0.24,0.05,0.37C-76.5,435.76-75.38,435.53-74.27,435.3z M-66.49,432.89c-0.6-0.45-0.71-0.45-1.27-0.08
			c-0.16,0.11-0.33,0.21-0.49,0.32c-0.41,0.29-0.82,0.59-1.23,0.89c0.01,0.01,0.02,0.03,0.03,0.04
			C-68.47,433.67-67.49,433.28-66.49,432.89z M-73.37,514.1c0.02-0.04,0.04-0.08,0.06-0.13c-0.1-0.05-0.2-0.12-0.31-0.13
			c-0.44-0.04-0.89-0.04-1.33-0.09c-1.22-0.12-2.44-0.26-3.66-0.39c-0.39-0.04-0.78-0.11-1.16-0.16c0,0.03-0.01,0.06-0.01,0.1
			C-77.67,513.74-75.53,513.99-73.37,514.1z M-64.5,435.52c0-0.57,0-0.57-0.51-0.57c-0.85,0-1.71,0.01-2.56,0.02
			c-0.13,0-0.27,0.04-0.4,0.06c0,0.01,0.01,0.03,0.01,0.04C-66.81,435.22-65.67,435.37-64.5,435.52z M-73.19,434.09
			c0.01-0.02,0.02-0.03,0.02-0.05c-0.08-0.05-0.16-0.11-0.24-0.15c-0.58-0.31-1.16-0.61-1.75-0.91c-0.46-0.23-0.71-0.17-1.05,0.26
			C-75.2,433.52-74.19,433.8-73.19,434.09z M-65.43,433.64c-0.39-0.48-0.47-0.51-0.99-0.32c-0.69,0.25-1.38,0.51-2.07,0.77
			c-0.08,0.03-0.14,0.08-0.3,0.17C-67.61,434.04-66.54,433.84-65.43,433.64z M-68.17,434.54c0,0.01,0.01,0.02,0.01,0.02
			c1.13,0,2.27,0,3.43,0c-0.14-0.4-0.29-0.61-0.72-0.51c-0.48,0.12-0.98,0.16-1.47,0.25C-67.33,434.38-67.75,434.46-68.17,434.54z
			 M-77.61,434.99c1.17-0.06,2.32-0.11,3.47-0.17c-0.13-0.07-0.26-0.11-0.39-0.12c-0.84-0.08-1.67-0.15-2.51-0.22
			C-77.49,434.44-77.5,434.45-77.61,434.99z M-73.81,434.39c0-0.01,0.01-0.02,0.01-0.04c-0.06-0.03-0.12-0.06-0.18-0.08
			c-0.77-0.21-1.55-0.43-2.32-0.63c-0.46-0.12-0.57-0.06-0.81,0.4C-76,434.16-74.9,434.27-73.81,434.39z M-94.26,434.05
			c0.02,0.04,0.04,0.08,0.06,0.12c0.67-0.29,1.37-0.52,1.99-0.88c0.62-0.36,1.17-0.86,1.75-1.29c-0.02-0.03-0.04-0.06-0.05-0.08
			C-91.77,432.63-93.01,433.34-94.26,434.05z M-75.77,427.66c-1.52,0.11-3.02,0.39-4.5,0.75c0.18,0.07,0.37,0.15,0.53,0.12
			C-78.41,428.25-77.09,427.95-75.77,427.66z M-65.19,513.62c0.01,0.06,0.02,0.12,0.04,0.17c1.17-0.2,2.34-0.4,3.51-0.61
			c-0.01-0.03-0.01-0.07-0.02-0.1C-62.84,513.26-64.01,513.44-65.19,513.62z M-30.41,485.98c0.26-0.75,0.51-1.51,0.77-2.26
			C-30.14,484.3-30.36,484.93-30.41,485.98z M-64.53,428.01c0.01-0.05,0.01-0.11,0.02-0.16c-1.1-0.12-2.19-0.24-3.29-0.36
			c0,0.02,0,0.04-0.01,0.06C-66.71,427.7-65.62,427.85-64.53,428.01z M-46.77,506.74c-0.02-0.02-0.04-0.05-0.06-0.07
			c-0.44,0.3-1,0.42-1.29,0.94C-47.67,507.32-47.22,507.03-46.77,506.74z M-108.33,493.09c0.04-0.02,0.07-0.04,0.11-0.06
			c-0.24-0.41-0.47-0.83-0.71-1.24c-0.04,0.02-0.08,0.05-0.12,0.07C-108.8,492.26-108.57,492.68-108.33,493.09z"/>
	</g>
</g>
<polyline class="st0" points="-87.62,431.72 -154.04,365.3 -219.34,365.3 "/>
<polyline class="st0" points="-514,470.68 -393.48,470.68 -362.73,501.43 -211.53,501.43 -181.08,470.98 -153.48,470.98 "/>
<circle class="st0" cx="-147.78" cy="470.68" r="6.76"/>
<rect x="-202.6" y="230.79" style="fill:none;" width="1.12" height="7.81"/>
<text transform="matrix(1 0 0 1 -219.3413 360.7307)" style="font-family:'Ubuntu-Light'; font-size:14.9596px;">000*</text>
<text transform="matrix(1 0 0 1 61.3799 477.4314)" style="font-family:'Ubuntu-Light'; font-size:14.9596px;">UNNAMED</text>
<text transform="matrix(1 0 0 1 61.3799 496.7639)" style="font-family:'Ubuntu-Light'; font-size:14.9596px;">UNNAMED</text>
<text transform="matrix(1 0 0 1 61.3799 514.528)" style="font-family:'Ubuntu-Light'; font-size:14.9596px;">UNNAMED</text>
<text transform="matrix(1 0 0 1 274.1694 477.4314)" style="font-family:'Ubuntu-Light'; font-size:14.9596px;">[                  ]</text>
<text transform="matrix(1 0 0 1 274.1694 497.9889)" style="font-family:'Ubuntu-Light'; font-size:14.9596px;">[                  ]</text>
<text transform="matrix(1 0 0 1 274.1694 515.5465)" style="font-family:'Ubuntu-Light'; font-size:14.9596px;">[                  ]</text>
<polyline class="st1" points="-32.92,453.93 0,453.93 36,417.93 340.16,417.93 378.41,379.68 583.26,379.68 "/>
<polyline class="st1" points="-30.92,461.93 2,461.93 38,425.93 342.16,425.93 380.41,387.68 585.26,387.68 "/>
<polyline class="st1" points="-27.92,469.93 5,469.93 41,433.93 345.16,433.93 383.41,395.68 588.26,395.68 "/>
<path class="st1" d="M618.21,514.53H392.87c-5.49,0-9.98-4.49-9.98-9.98v-27.59c0-5.49,4.49-9.98,9.98-9.98h225.34
	c5.49,0,9.98,4.49,9.98,9.98v27.59C628.19,510.04,623.7,514.53,618.21,514.53z"/>
<g>
	<g>
		<polyline class="st1" points="413.87,480.28 413.87,486.28 407.87,486.28 		"/>
		<line class="st2" x1="393.45" y1="486.28" x2="371.82" y2="486.28"/>
		<polyline class="st1" points="364.61,486.28 358.61,486.28 358.61,480.28 		"/>
		<line class="st3" x1="358.61" y1="469.91" x2="358.61" y2="454.35"/>
		<polyline class="st1" points="358.61,449.16 358.61,443.16 364.61,443.16 		"/>
		<line class="st2" x1="379.03" y1="443.16" x2="400.66" y2="443.16"/>
		<polyline class="st1" points="407.87,443.16 413.87,443.16 413.87,449.16 		"/>
		<line class="st3" x1="413.87" y1="459.53" x2="413.87" y2="475.09"/>
	</g>
</g>
<path d="M-307.05,433.02h-9.3c-0.25-0.08-0.5-0.17-0.74-0.27c-1.24-0.51-2.14-1.37-2.65-2.61c-0.14-0.33-0.26-0.67-0.37-1.01v-9.17
	h-1.57v9.36c-0.03,0.11-0.06,0.21-0.1,0.32c-0.55,1.58-1.6,2.67-3.19,3.23c-0.15,0.05-0.31,0.1-0.46,0.15h-9.31v1.57h9.26
	c0.09,0.03,0.17,0.05,0.26,0.08c0.75,0.26,1.46,0.6,2.06,1.14c0.69,0.62,1.11,1.42,1.41,2.28l0.07,0.2v9.35h1.57v-9.18
	c0.06-0.19,0.12-0.37,0.18-0.56c0.53-1.46,1.49-2.5,2.95-3.07c0.23-0.09,0.47-0.17,0.7-0.25h9.22V433.02z"/>
<path d="M202.46,579.99c-4.2,0-8.14,0.77-11.54,2.1c-3.39-1.34-7.33-2.1-11.54-2.1c-12.74,0-23.07,7.03-23.07,15.71
	c0,8.68,10.33,15.71,23.07,15.71c4.2,0,8.14-0.77,11.54-2.1c3.39,1.34,7.33,2.1,11.54,2.1c12.74,0,23.07-7.03,23.07-15.71
	C225.53,587.02,215.2,579.99,202.46,579.99z M179.22,602.77l-6.21,0.01c-0.59-1.98-0.93-4.24-0.97-6.66l7.18-0.01L179.22,602.77z
	 M171.25,596.12c0.04,2.4,0.37,4.65,0.94,6.66l-4.85,0.01c-1.07-1.98-1.71-4.24-1.78-6.65L171.25,596.12z M165.56,595.34
	c0.06-2.41,0.69-4.68,1.76-6.66l4.86-0.01c-0.56,2-0.89,4.26-0.92,6.66L165.56,595.34z M179.21,595.32l-7.18,0.01
	c0.03-2.41,0.37-4.68,0.95-6.66l6.22-0.01L179.21,595.32z M179.2,587.87l-5.97,0.01c0.31-0.91,0.66-1.75,1.07-2.51
	c1.17-2.11,2.64-3.85,4.89-4.14L179.2,587.87z M172.61,587.26c-0.07,0.2-0.14,0.41-0.21,0.62l-4.63,0.01
	c1.92-3.1,4.98-5.4,8.56-6.28C174.75,582.83,173.52,584.79,172.61,587.26z M173.46,581.8c-1.64,0.77-3.12,1.83-4.37,3.13
	c-0.86,0.89-1.61,1.89-2.24,2.97L161,587.9C164.11,584.72,168.82,582.66,173.46,581.8z M160.27,588.69l6.15-0.01
	c-1.01,2-1.6,4.26-1.66,6.66l-7.27,0.01C157.57,592.93,158.65,590.56,160.27,588.69z M157.5,596.14l7.27-0.01
	c0.06,2.4,0.66,4.66,1.68,6.66l-6.15,0.01C158.67,600.93,157.58,598.57,157.5,596.14z M161.02,603.59l5.85-0.01
	c1.54,2.65,3.86,4.79,6.65,6.08C168.47,608.65,164.38,606.88,161.02,603.59z M167.8,603.58l4.63-0.01c0.34,1.04,0.75,2.01,1.21,2.87
	c0.77,1.43,1.67,2.57,2.74,3.38C172.79,608.96,169.73,606.67,167.8,603.58z M173.38,603.92c-0.04-0.11-0.08-0.23-0.12-0.35
	l5.96-0.01l0.01,6.64C176.18,609.68,174.67,607.15,173.38,603.92z M201.75,602.73c-1.64,0-4.52,0.01-6.19,0.01
	c-0.58-1.98-0.93-4.24-0.97-6.65l7.13-0.02l0.02,0C201.74,597.81,201.74,601.02,201.75,602.73z M179.99,588.66c0.52,0,1.15,0,1.83,0
	c1.5,0,3.22,0,4.38-0.01c0.59,1.98,0.93,4.24,0.97,6.66l-7.18,0.01c0-0.8,0-2.01,0-3.23C180,590.8,179.99,589.5,179.99,588.66z
	 M193.66,595.3c-0.13,0-5.56,0.01-5.69,0.01c-0.03-2.27-0.34-4.55-0.94-6.66c0.6,0,2.23,0,2.8,0l2.05,0
	C192.96,590.62,193.59,592.89,193.66,595.3z M192.77,588.64c1.62,0,4.5-0.01,6.15-0.01c1.63,1.86,2.71,4.23,2.8,6.65
	c-0.13,0-7.15,0.01-7.27,0.01C194.39,592.96,193.82,590.69,192.77,588.64z M187.32,596.1c0.06,2.33,0.63,4.61,1.67,6.66
	c-1.63,0-4.52,0.01-6.17,0.01c-1.63-1.86-2.71-4.23-2.8-6.65L187.32,596.1z M188.11,596.1l5.69-0.01c0.03,2.26,0.34,4.54,0.94,6.65
	c-1.4,0-3.46,0.01-4.86,0.01C188.81,600.78,188.18,598.51,188.11,596.1z M201.73,591.69c-0.44-1.09-1.05-2.13-1.79-3.06l1.78,0
	L201.73,591.69z M201.72,587.84l-2.44,0c-0.74-0.83-1.6-1.6-2.55-2.31c0.03-0.06,0.06-0.13,0.09-0.19c1.17-2.11,2.64-3.85,4.89-4.14
	L201.72,587.84z M196.09,585.07c-0.64-0.44-1.33-0.86-2.04-1.24c1.43-1.04,3.06-1.81,4.82-2.24
	C197.76,582.41,196.86,583.6,196.09,585.07z M195.98,581.76c-0.97,0.45-1.88,1.01-2.72,1.65c-0.3-0.15-0.61-0.29-0.92-0.43
	c-0.13-0.06-0.26-0.11-0.39-0.16C193.23,582.39,194.58,582.03,195.98,581.76z M189.45,582.73c3.26,1.05,6.31,2.69,8.75,5.12
	c-1.64,0-4.21,0.01-5.85,0.01c-0.86-1.46-1.94-2.78-3.23-3.88c-0.27-0.23-0.55-0.46-0.84-0.67c-0.8-0.6-1.67-1.11-2.58-1.53
	C186.96,582.02,188.22,582.33,189.45,582.73z M187.52,583.73c1.56,1.09,2.89,2.5,3.9,4.13c-1.23,0-3.38,0.01-4.63,0.01
	c-0.34-1.03-0.73-1.95-1.21-2.87c0,0,0,0,0,0c-0.77-1.43-1.67-2.57-2.74-3.38C184.53,582.01,186.11,582.74,187.52,583.73z
	 M184.94,585.48c0.41,0.78,0.75,1.6,1.02,2.38l-2.44,0c-0.24,0-0.63,0-1.07,0c-0.88,0-1.97,0-2.46,0l-0.01-6.64
	C182.24,581.52,183.85,583.38,184.94,585.48z M180.01,599.71c0.28,0.69,0.63,1.37,1.05,2.02c0.23,0.35,0.48,0.7,0.74,1.04l-1.78,0
	L180.01,599.71z M180.02,603.56l2.44,0c0.08,0.09,0.16,0.17,0.24,0.26c0.69,0.73,1.46,1.42,2.31,2.06
	c-0.01,0.03-0.03,0.05-0.04,0.08c-1.14,2.13-2.67,3.96-4.94,4.25L180.02,603.56z M182.98,609.74c1.01-0.8,1.89-1.94,2.62-3.32
	c0.02-0.03,0.03-0.06,0.05-0.09c0.64,0.44,1.33,0.86,2.04,1.24c-0.05,0.04-0.1,0.07-0.15,0.11c-1.39,0.99-2.97,1.72-4.66,2.13
	L182.98,609.74z M185.76,609.63c0.9-0.42,1.76-0.93,2.55-1.53c0.06-0.04,0.11-0.08,0.17-0.13c0.42,0.21,0.86,0.42,1.31,0.59
	c-0.11,0.04-0.21,0.07-0.32,0.11C188.28,609.07,187.05,609.39,185.76,609.63z M191.99,608.57l0.01-0.01
	c-0.38-0.13-0.75-0.26-1.11-0.4l-0.01,0c-2.71-1.05-5.29-2.56-7.35-4.62c1.44,0,4.43-0.01,5.85-0.01c0.4,0.65,1.12,1.62,1.5,2.12
	c0.53,0.63,1.11,1.22,1.73,1.76l0,0c1.04,0.88,2.19,1.63,3.42,2.2C194.66,609.36,193.32,609.01,191.99,608.57z M190.28,603.54
	c1.23,0,3.38-0.01,4.63-0.01c0.34,1.03,0.73,1.95,1.21,2.87c0.77,1.43,1.66,2.57,2.74,3.38
	C195.3,608.93,192.21,606.64,190.28,603.54z M195.78,603.53l5.97-0.01l0.01,6.64C198.55,609.72,196.79,606.37,195.78,603.53z
	 M224.24,595.25l-7.27,0.01c-0.06-2.4-0.66-4.66-1.68-6.66l6.15-0.01C223.07,590.46,224.16,592.83,224.24,595.25z M216.18,596.05
	c-0.06,2.41-0.69,4.68-1.76,6.66l-4.86,0.01c0.56-2,0.89-4.26,0.92-6.66L216.18,596.05z M209.55,588.62l4.85-0.01
	c1.07,1.98,1.71,4.24,1.78,6.66l-5.69,0.01C210.46,592.88,210.12,590.62,209.55,588.62z M220.72,587.81l-5.85,0.01
	c-1.54-2.65-3.86-4.79-6.65-6.08C213.27,582.74,217.35,584.51,220.72,587.81z M213.94,587.82l-4.63,0.01
	c-0.34-1.04-0.75-2.01-1.21-2.87c-0.77-1.43-1.67-2.57-2.74-3.38C208.94,582.44,212.01,584.72,213.94,587.82z M202.5,581.2
	c3.06,0.52,4.57,3.05,5.85,6.28c0.04,0.11,0.08,0.24,0.12,0.35l-5.96,0.01L202.5,581.2z M202.51,588.63l6.21-0.01
	c0.59,1.98,0.93,4.24,0.97,6.66l-7.18,0.01L202.51,588.63z M202.53,596.08l7.18-0.01c-0.03,2.41-0.37,4.68-0.95,6.66l-6.22,0.01
	L202.53,596.08z M202.54,603.52l5.97-0.01c-0.31,0.91-0.66,1.75-1.07,2.51c-1.17,2.11-2.64,3.85-4.89,4.14L202.54,603.52z
	 M209.33,603.51l4.63-0.01c-1.92,3.1-4.98,5.4-8.56,6.28C207.1,608.51,208.53,606.09,209.33,603.51z M208.28,609.6
	c1.64-0.77,3.12-1.83,4.37-3.13c0.86-0.89,1.61-1.89,2.24-2.97l5.85-0.01C217.63,606.68,212.92,608.74,208.28,609.6z M221.47,602.7
	l-6.15,0.01c1.01-2,1.6-4.26,1.66-6.66l7.27-0.01C224.17,598.46,223.08,600.83,221.47,602.7z"/>
<path class="st4" d="M392.63,478.28h-4.51c-0.74,0-1.35-0.61-1.35-1.35v-4.51c0-0.74,0.61-1.35,1.35-1.35h4.51
	c0.74,0,1.35,0.61,1.35,1.35v4.51C393.97,477.68,393.37,478.28,392.63,478.28z M403.92,476.93v-4.51c0-0.74-0.61-1.35-1.35-1.35
	h-4.51c-0.74,0-1.35,0.61-1.35,1.35v4.51c0,0.74,0.61,1.35,1.35,1.35l4.51,0C403.32,478.28,403.92,477.68,403.92,476.93z
	 M413.88,476.93v-4.51c0-0.74-0.61-1.35-1.35-1.35h-4.51c-0.74,0-1.35,0.61-1.35,1.35v4.51c0,0.74,0.61,1.35,1.35,1.35h4.51
	C413.27,478.28,413.88,477.68,413.88,476.93z M423.83,476.93v-4.51c0-0.74-0.61-1.35-1.35-1.35h-4.51c-0.74,0-1.35,0.61-1.35,1.35
	v4.51c0,0.74,0.61,1.35,1.35,1.35h4.51C423.22,478.28,423.83,477.68,423.83,476.93z M434.24,476.93v-4.51
	c0-0.74-0.61-1.35-1.35-1.35h-4.51c-0.74,0-1.35,0.61-1.35,1.35v4.51c0,0.74,0.61,1.35,1.35,1.35h4.51
	C433.64,478.28,434.24,477.68,434.24,476.93z M454.15,476.93v-4.51c0-0.74-0.61-1.35-1.35-1.35h-4.51c-0.74,0-1.35,0.61-1.35,1.35
	v4.51c0,0.74,0.61,1.35,1.35,1.35h4.51C453.54,478.28,454.15,477.68,454.15,476.93z M464.1,476.93v-4.51c0-0.74-0.61-1.35-1.35-1.35
	h-4.51c-0.74,0-1.35,0.61-1.35,1.35v4.51c0,0.74,0.61,1.35,1.35,1.35h4.51C463.49,478.28,464.1,477.68,464.1,476.93z M393.97,486.9
	v-4.51c0-0.74-0.61-1.35-1.35-1.35h-4.51c-0.74,0-1.35,0.61-1.35,1.35v4.51c0,0.74,0.61,1.35,1.35,1.35h4.51
	C393.37,488.25,393.97,487.64,393.97,486.9z M413.88,486.9v-4.51c0-0.74-0.61-1.35-1.35-1.35h-4.51c-0.74,0-1.35,0.61-1.35,1.35
	v4.51c0,0.74,0.61,1.35,1.35,1.35h4.51C413.27,488.25,413.88,487.64,413.88,486.9z M423.83,486.9v-4.51c0-0.74-0.61-1.35-1.35-1.35
	h-4.51c-0.74,0-1.35,0.61-1.35,1.35v4.51c0,0.74,0.61,1.35,1.35,1.35h4.51C423.22,488.25,423.83,487.64,423.83,486.9z M434.24,486.9
	v-4.51c0-0.74-0.61-1.35-1.35-1.35h-4.51c-0.74,0-1.35,0.61-1.35,1.35v4.51c0,0.74,0.61,1.35,1.35,1.35h4.51
	C433.64,488.25,434.24,487.64,434.24,486.9z M444.19,486.9v-4.51c0-0.74-0.61-1.35-1.35-1.35h-4.51c-0.74,0-1.35,0.61-1.35,1.35
	v4.51c0,0.74,0.61,1.35,1.35,1.35h4.51C443.59,488.25,444.19,487.64,444.19,486.9z M454.15,486.9v-4.51c0-0.74-0.61-1.35-1.35-1.35
	h-4.51c-0.74,0-1.35,0.61-1.35,1.35v4.51c0,0.74,0.61,1.35,1.35,1.35h4.51C453.54,488.25,454.15,487.64,454.15,486.9z
	 M393.97,496.87v-4.51c0-0.74-0.61-1.35-1.35-1.35h-4.51c-0.74,0-1.35,0.61-1.35,1.35v4.51c0,0.74,0.61,1.35,1.35,1.35h4.51
	C393.37,498.22,393.97,497.61,393.97,496.87z M403.92,496.87v-4.51c0-0.74-0.61-1.35-1.35-1.35h-4.51c-0.74,0-1.35,0.61-1.35,1.35
	v4.51c0,0.74,0.61,1.35,1.35,1.35h4.51C403.32,498.22,403.92,497.61,403.92,496.87z M413.88,496.87v-4.51
	c0-0.74-0.61-1.35-1.35-1.35h-4.51c-0.74,0-1.35,0.61-1.35,1.35v4.51c0,0.74,0.61,1.35,1.35,1.35h4.51
	C413.27,498.22,413.88,497.61,413.88,496.87z M423.83,496.87v-4.51c0-0.74-0.61-1.35-1.35-1.35h-4.51c-0.74,0-1.35,0.61-1.35,1.35
	v4.51c0,0.74,0.61,1.35,1.35,1.35h4.51C423.22,498.22,423.83,497.61,423.83,496.87z M434.24,496.87v-4.51
	c0-0.74-0.61-1.35-1.35-1.35h-4.51c-0.74,0-1.35,0.61-1.35,1.35v4.51c0,0.74,0.61,1.35,1.35,1.35h4.51
	C433.64,498.22,434.24,497.61,434.24,496.87z M454.15,496.87v-4.51c0-0.74-0.61-1.35-1.35-1.35h-4.51c-0.74,0-1.35,0.61-1.35,1.35
	v4.51c0,0.74,0.61,1.35,1.35,1.35h4.51C453.54,498.22,454.15,497.61,454.15,496.87z M464.1,496.87v-4.51c0-0.74-0.61-1.35-1.35-1.35
	h-4.51c-0.74,0-1.35,0.61-1.35,1.35v4.51c0,0.74,0.61,1.35,1.35,1.35h4.51C463.49,498.22,464.1,497.61,464.1,496.87z M393.97,506.84
	v-4.51c0-0.74-0.61-1.35-1.35-1.35h-4.51c-0.74,0-1.35,0.61-1.35,1.35v4.51c0,0.74,0.61,1.35,1.35,1.35h4.51
	C393.37,508.18,393.97,507.58,393.97,506.84z M413.88,506.84v-4.51c0-0.74-0.61-1.35-1.35-1.35h-4.51c-0.74,0-1.35,0.61-1.35,1.35
	v4.51c0,0.74,0.61,1.35,1.35,1.35h4.51C413.27,508.18,413.88,507.58,413.88,506.84z M423.83,506.84v-4.51
	c0-0.74-0.61-1.35-1.35-1.35h-4.51c-0.74,0-1.35,0.61-1.35,1.35v4.51c0,0.74,0.61,1.35,1.35,1.35h4.51
	C423.22,508.18,423.83,507.58,423.83,506.84z M434.24,506.84v-4.51c0-0.74-0.61-1.35-1.35-1.35h-4.51c-0.74,0-1.35,0.61-1.35,1.35
	v4.51c0,0.74,0.61,1.35,1.35,1.35h4.51C433.64,508.18,434.24,507.58,434.24,506.84z M444.19,506.84v-4.51
	c0-0.74-0.61-1.35-1.35-1.35h-4.51c-0.74,0-1.35,0.61-1.35,1.35v4.51c0,0.74,0.61,1.35,1.35,1.35h4.51
	C443.59,508.18,444.19,507.58,444.19,506.84z M454.15,506.84v-4.51c0-0.74-0.61-1.35-1.35-1.35h-4.51c-0.74,0-1.35,0.61-1.35,1.35
	v4.51c0,0.74,0.61,1.35,1.35,1.35h4.51C453.54,508.18,454.15,507.58,454.15,506.84z M464.1,506.84v-4.51c0-0.74-0.61-1.35-1.35-1.35
	h-4.51c-0.74,0-1.35,0.61-1.35,1.35v4.51c0,0.74,0.61,1.35,1.35,1.35h4.51C463.49,508.18,464.1,507.58,464.1,506.84z"/>
<path class="st4" d="M616.07,500.98h4.51c0.74,0,1.35,0.61,1.35,1.35v4.51c0,0.74-0.61,1.35-1.35,1.35h-4.51
	c-0.74,0-1.35-0.61-1.35-1.35v-4.51C614.72,501.58,615.33,500.98,616.07,500.98z M604.77,502.32v4.51c0,0.74,0.61,1.35,1.35,1.35
	h4.51c0.74,0,1.35-0.61,1.35-1.35v-4.51c0-0.74-0.61-1.35-1.35-1.35l-4.51,0C605.38,500.98,604.77,501.58,604.77,502.32z
	 M594.81,502.32v4.51c0,0.74,0.61,1.35,1.35,1.35h4.51c0.74,0,1.35-0.61,1.35-1.35v-4.51c0-0.74-0.61-1.35-1.35-1.35h-4.51
	C595.42,500.98,594.81,501.58,594.81,502.32z M584.87,502.32v4.51c0,0.74,0.61,1.35,1.35,1.35h4.51c0.74,0,1.35-0.61,1.35-1.35
	v-4.51c0-0.74-0.61-1.35-1.35-1.35h-4.51C585.47,500.98,584.87,501.58,584.87,502.32z M574.45,502.32v4.51
	c0,0.74,0.61,1.35,1.35,1.35h4.51c0.74,0,1.35-0.61,1.35-1.35v-4.51c0-0.74-0.61-1.35-1.35-1.35h-4.51
	C575.06,500.98,574.45,501.58,574.45,502.32z M554.54,502.32v4.51c0,0.74,0.61,1.35,1.35,1.35h4.51c0.74,0,1.35-0.61,1.35-1.35
	v-4.51c0-0.74-0.61-1.35-1.35-1.35h-4.51C555.15,500.98,554.54,501.58,554.54,502.32z M544.6,502.32v4.51
	c0,0.74,0.61,1.35,1.35,1.35h4.51c0.74,0,1.35-0.61,1.35-1.35v-4.51c0-0.74-0.61-1.35-1.35-1.35h-4.51
	C545.2,500.98,544.6,501.58,544.6,502.32z M614.72,492.36v4.51c0,0.74,0.61,1.35,1.35,1.35h4.51c0.74,0,1.35-0.61,1.35-1.35v-4.51
	c0-0.74-0.61-1.35-1.35-1.35h-4.51C615.33,491.01,614.72,491.61,614.72,492.36z M594.81,492.36v4.51c0,0.74,0.61,1.35,1.35,1.35
	h4.51c0.74,0,1.35-0.61,1.35-1.35v-4.51c0-0.74-0.61-1.35-1.35-1.35h-4.51C595.42,491.01,594.81,491.61,594.81,492.36z
	 M584.87,492.36v4.51c0,0.74,0.61,1.35,1.35,1.35h4.51c0.74,0,1.35-0.61,1.35-1.35v-4.51c0-0.74-0.61-1.35-1.35-1.35h-4.51
	C585.47,491.01,584.87,491.61,584.87,492.36z M574.45,492.36v4.51c0,0.74,0.61,1.35,1.35,1.35h4.51c0.74,0,1.35-0.61,1.35-1.35
	v-4.51c0-0.74-0.61-1.35-1.35-1.35h-4.51C575.06,491.01,574.45,491.61,574.45,492.36z M564.5,492.36v4.51
	c0,0.74,0.61,1.35,1.35,1.35h4.51c0.74,0,1.35-0.61,1.35-1.35v-4.51c0-0.74-0.61-1.35-1.35-1.35h-4.51
	C565.11,491.01,564.5,491.61,564.5,492.36z M554.54,492.36v4.51c0,0.74,0.61,1.35,1.35,1.35h4.51c0.74,0,1.35-0.61,1.35-1.35v-4.51
	c0-0.74-0.61-1.35-1.35-1.35h-4.51C555.15,491.01,554.54,491.61,554.54,492.36z M614.72,482.39v4.51c0,0.74,0.61,1.35,1.35,1.35
	h4.51c0.74,0,1.35-0.61,1.35-1.35v-4.51c0-0.74-0.61-1.35-1.35-1.35h-4.51C615.33,481.04,614.72,481.65,614.72,482.39z
	 M604.77,482.39v4.51c0,0.74,0.61,1.35,1.35,1.35h4.51c0.74,0,1.35-0.61,1.35-1.35v-4.51c0-0.74-0.61-1.35-1.35-1.35h-4.51
	C605.38,481.04,604.77,481.65,604.77,482.39z M594.81,482.39v4.51c0,0.74,0.61,1.35,1.35,1.35h4.51c0.74,0,1.35-0.61,1.35-1.35
	v-4.51c0-0.74-0.61-1.35-1.35-1.35h-4.51C595.42,481.04,594.81,481.65,594.81,482.39z M584.87,482.39v4.51
	c0,0.74,0.61,1.35,1.35,1.35h4.51c0.74,0,1.35-0.61,1.35-1.35v-4.51c0-0.74-0.61-1.35-1.35-1.35h-4.51
	C585.47,481.04,584.87,481.65,584.87,482.39z M574.45,482.39v4.51c0,0.74,0.61,1.35,1.35,1.35h4.51c0.74,0,1.35-0.61,1.35-1.35
	v-4.51c0-0.74-0.61-1.35-1.35-1.35h-4.51C575.06,481.04,574.45,481.65,574.45,482.39z M554.54,482.39v4.51
	c0,0.74,0.61,1.35,1.35,1.35h4.51c0.74,0,1.35-0.61,1.35-1.35v-4.51c0-0.74-0.61-1.35-1.35-1.35h-4.51
	C555.15,481.04,554.54,481.65,554.54,482.39z M544.6,482.39v4.51c0,0.74,0.61,1.35,1.35,1.35h4.51c0.74,0,1.35-0.61,1.35-1.35v-4.51
	c0-0.74-0.61-1.35-1.35-1.35h-4.51C545.2,481.04,544.6,481.65,544.6,482.39z M614.72,472.42v4.51c0,0.74,0.61,1.35,1.35,1.35h4.51
	c0.74,0,1.35-0.61,1.35-1.35v-4.51c0-0.74-0.61-1.35-1.35-1.35h-4.51C615.33,471.07,614.72,471.68,614.72,472.42z M594.81,472.42
	v4.51c0,0.74,0.61,1.35,1.35,1.35h4.51c0.74,0,1.35-0.61,1.35-1.35v-4.51c0-0.74-0.61-1.35-1.35-1.35h-4.51
	C595.42,471.07,594.81,471.68,594.81,472.42z M584.87,472.42v4.51c0,0.74,0.61,1.35,1.35,1.35h4.51c0.74,0,1.35-0.61,1.35-1.35
	v-4.51c0-0.74-0.61-1.35-1.35-1.35h-4.51C585.47,471.07,584.87,471.68,584.87,472.42z M574.45,472.42v4.51
	c0,0.74,0.61,1.35,1.35,1.35h4.51c0.74,0,1.35-0.61,1.35-1.35v-4.51c0-0.74-0.61-1.35-1.35-1.35h-4.51
	C575.06,471.07,574.45,471.68,574.45,472.42z M564.5,472.42v4.51c0,0.74,0.61,1.35,1.35,1.35h4.51c0.74,0,1.35-0.61,1.35-1.35v-4.51
	c0-0.74-0.61-1.35-1.35-1.35h-4.51C565.11,471.07,564.5,471.68,564.5,472.42z M554.54,472.42v4.51c0,0.74,0.61,1.35,1.35,1.35h4.51
	c0.74,0,1.35-0.61,1.35-1.35v-4.51c0-0.74-0.61-1.35-1.35-1.35h-4.51C555.15,471.07,554.54,471.68,554.54,472.42z M544.6,472.42
	v4.51c0,0.74,0.61,1.35,1.35,1.35h4.51c0.74,0,1.35-0.61,1.35-1.35v-4.51c0-0.74-0.61-1.35-1.35-1.35h-4.51
	C545.2,471.07,544.6,471.68,544.6,472.42z"/>
<path class="st4" d="M472.73,478.28h-4.51c-0.74,0-1.35-0.61-1.35-1.35v-4.51c0-0.74,0.61-1.35,1.35-1.35h4.51
	c0.74,0,1.35,0.61,1.35,1.35v4.51C474.08,477.68,473.48,478.28,472.73,478.28z M484.03,476.93v-4.51c0-0.74-0.61-1.35-1.35-1.35
	h-4.51c-0.74,0-1.35,0.61-1.35,1.35v4.51c0,0.74,0.61,1.35,1.35,1.35l4.51,0C483.42,478.28,484.03,477.68,484.03,476.93z
	 M493.99,476.93v-4.51c0-0.74-0.61-1.35-1.35-1.35h-4.51c-0.74,0-1.35,0.61-1.35,1.35v4.51c0,0.74,0.61,1.35,1.35,1.35h4.51
	C493.38,478.28,493.99,477.68,493.99,476.93z M503.94,476.93v-4.51c0-0.74-0.61-1.35-1.35-1.35h-4.51c-0.74,0-1.35,0.61-1.35,1.35
	v4.51c0,0.74,0.61,1.35,1.35,1.35h4.51C503.33,478.28,503.94,477.68,503.94,476.93z M514.35,476.93v-4.51
	c0-0.74-0.61-1.35-1.35-1.35h-4.51c-0.74,0-1.35,0.61-1.35,1.35v4.51c0,0.74,0.61,1.35,1.35,1.35H513
	C513.75,478.28,514.35,477.68,514.35,476.93z M534.26,476.93v-4.51c0-0.74-0.61-1.35-1.35-1.35h-4.51c-0.74,0-1.35,0.61-1.35,1.35
	v4.51c0,0.74,0.61,1.35,1.35,1.35h4.51C533.65,478.28,534.26,477.68,534.26,476.93z M544.21,476.93v-4.51
	c0-0.74-0.61-1.35-1.35-1.35h-4.51c-0.74,0-1.35,0.61-1.35,1.35v4.51c0,0.74,0.61,1.35,1.35,1.35h4.51
	C543.6,478.28,544.21,477.68,544.21,476.93z M474.08,486.9v-4.51c0-0.74-0.61-1.35-1.35-1.35h-4.51c-0.74,0-1.35,0.61-1.35,1.35
	v4.51c0,0.74,0.61,1.35,1.35,1.35h4.51C473.48,488.25,474.08,487.64,474.08,486.9z M493.99,486.9v-4.51c0-0.74-0.61-1.35-1.35-1.35
	h-4.51c-0.74,0-1.35,0.61-1.35,1.35v4.51c0,0.74,0.61,1.35,1.35,1.35h4.51C493.38,488.25,493.99,487.64,493.99,486.9z M503.94,486.9
	v-4.51c0-0.74-0.61-1.35-1.35-1.35h-4.51c-0.74,0-1.35,0.61-1.35,1.35v4.51c0,0.74,0.61,1.35,1.35,1.35h4.51
	C503.33,488.25,503.94,487.64,503.94,486.9z M514.35,486.9v-4.51c0-0.74-0.61-1.35-1.35-1.35h-4.51c-0.74,0-1.35,0.61-1.35,1.35
	v4.51c0,0.74,0.61,1.35,1.35,1.35H513C513.75,488.25,514.35,487.64,514.35,486.9z M524.3,486.9v-4.51c0-0.74-0.61-1.35-1.35-1.35
	l-4.51,0c-0.74,0-1.35,0.61-1.35,1.35v4.51c0,0.74,0.61,1.35,1.35,1.35h4.51C523.69,488.25,524.3,487.64,524.3,486.9z M534.26,486.9
	v-4.51c0-0.74-0.61-1.35-1.35-1.35h-4.51c-0.74,0-1.35,0.61-1.35,1.35v4.51c0,0.74,0.61,1.35,1.35,1.35h4.51
	C533.65,488.25,534.26,487.64,534.26,486.9z M474.08,496.87v-4.51c0-0.74-0.61-1.35-1.35-1.35h-4.51c-0.74,0-1.35,0.61-1.35,1.35
	v4.51c0,0.74,0.61,1.35,1.35,1.35h4.51C473.48,498.22,474.08,497.61,474.08,496.87z M484.03,496.87v-4.51
	c0-0.74-0.61-1.35-1.35-1.35h-4.51c-0.74,0-1.35,0.61-1.35,1.35l0,4.51c0,0.74,0.61,1.35,1.35,1.35h4.51
	C483.42,498.22,484.03,497.61,484.03,496.87z M493.99,496.87v-4.51c0-0.74-0.61-1.35-1.35-1.35h-4.51c-0.74,0-1.35,0.61-1.35,1.35
	l0,4.51c0,0.74,0.61,1.35,1.35,1.35h4.51C493.38,498.22,493.99,497.61,493.99,496.87z M503.94,496.87v-4.51
	c0-0.74-0.61-1.35-1.35-1.35h-4.51c-0.74,0-1.35,0.61-1.35,1.35v4.51c0,0.74,0.61,1.35,1.35,1.35h4.51
	C503.33,498.22,503.94,497.61,503.94,496.87z M514.35,496.87v-4.51c0-0.74-0.61-1.35-1.35-1.35h-4.51c-0.74,0-1.35,0.61-1.35,1.35
	v4.51c0,0.74,0.61,1.35,1.35,1.35H513C513.75,498.22,514.35,497.61,514.35,496.87z M534.26,496.87v-4.51c0-0.74-0.61-1.35-1.35-1.35
	h-4.51c-0.74,0-1.35,0.61-1.35,1.35v4.51c0,0.74,0.61,1.35,1.35,1.35h4.51C533.65,498.22,534.26,497.61,534.26,496.87z
	 M544.21,496.87v-4.51c0-0.74-0.61-1.35-1.35-1.35h-4.51c-0.74,0-1.35,0.61-1.35,1.35v4.51c0,0.74,0.61,1.35,1.35,1.35h4.51
	C543.6,498.22,544.21,497.61,544.21,496.87z M474.08,506.84v-4.51c0-0.74-0.61-1.35-1.35-1.35h-4.51c-0.74,0-1.35,0.61-1.35,1.35
	v4.51c0,0.74,0.61,1.35,1.35,1.35h4.51C473.48,508.18,474.08,507.58,474.08,506.84z M493.99,506.84v-4.51
	c0-0.74-0.61-1.35-1.35-1.35h-4.51c-0.74,0-1.35,0.61-1.35,1.35v4.51c0,0.74,0.61,1.35,1.35,1.35h4.51
	C493.38,508.18,493.99,507.58,493.99,506.84z M503.94,506.84v-4.51c0-0.74-0.61-1.35-1.35-1.35h-4.51c-0.74,0-1.35,0.61-1.35,1.35
	v4.51c0,0.74,0.61,1.35,1.35,1.35h4.51C503.33,508.18,503.94,507.58,503.94,506.84z M514.35,506.84v-4.51
	c0-0.74-0.61-1.35-1.35-1.35h-4.51c-0.74,0-1.35,0.61-1.35,1.35v4.51c0,0.74,0.61,1.35,1.35,1.35H513
	C513.75,508.18,514.35,507.58,514.35,506.84z M524.3,506.84v-4.51c0-0.74-0.61-1.35-1.35-1.35h-4.51c-0.74,0-1.35,0.61-1.35,1.35
	v4.51c0,0.74,0.61,1.35,1.35,1.35h4.51C523.69,508.18,524.3,507.58,524.3,506.84z M534.26,506.84v-4.51c0-0.74-0.61-1.35-1.35-1.35
	h-4.51c-0.74,0-1.35,0.61-1.35,1.35v4.51c0,0.74,0.61,1.35,1.35,1.35h4.51C533.65,508.18,534.26,507.58,534.26,506.84z
	 M544.21,506.84v-4.51c0-0.74-0.61-1.35-1.35-1.35h-4.51c-0.74,0-1.35,0.61-1.35,1.35v4.51c0,0.74,0.61,1.35,1.35,1.35h4.51
	C543.6,508.18,544.21,507.58,544.21,506.84z"/>
<polygon points="827.27,42.07 826.26,43.08 821.1,48.24 821.1,35.72 816.9,35.72 816.9,48.24 810.73,42.07 807.77,45.04 819,56.27 
	830.24,45.03 "/>
<polygon points="-6.81,501.09 -5.81,502.08 -0.73,507.16 -13.06,507.16 -13.06,511.29 -0.73,511.29 -6.81,517.37 -3.89,520.29 
	7.17,509.23 -3.89,498.17 "/>
<polygon points="-505.86,308.8 -506.86,309.8 -511.93,314.88 -511.94,302.55 -516.07,302.55 -516.07,314.88 -522.14,308.8 
	-525.06,311.72 -514,322.78 -502.94,311.72 "/>
<path class="st4" d="M-409.52,593.01v-0.17c0-0.61,0.5-1.11,1.11-1.11h0.17c0.61,0,1.11,0.5,1.11,1.11v0.17
	c0,0.61-0.5,1.11-1.11,1.11h-0.17C-409.02,594.12-409.52,593.62-409.52,593.01z"/>
<path class="st4" d="M-412.83,593.01v-0.17c0-0.61,0.5-1.11,1.11-1.11h0.17c0.61,0,1.11,0.5,1.11,1.11v0.17
	c0,0.61-0.5,1.11-1.11,1.11h-0.17C-412.33,594.12-412.83,593.62-412.83,593.01z"/>
<path class="st4" d="M-412.83,598.53v-0.17c0-0.61,0.5-1.11,1.11-1.11h0.17c0.61,0,1.11,0.5,1.11,1.11v0.17
	c0,0.61-0.5,1.11-1.11,1.11h-0.17C-412.33,599.64-412.83,599.14-412.83,598.53z"/>
<path class="st4" d="M-416.14,593.01v-0.17c0-0.61,0.5-1.11,1.11-1.11h0.17c0.61,0,1.11,0.5,1.11,1.11v0.17
	c0,0.61-0.5,1.11-1.11,1.11h-0.17C-415.64,594.12-416.14,593.62-416.14,593.01z"/>
<path class="st4" d="M-419.44,593.01v-0.17c0-0.61,0.5-1.11,1.11-1.11h0.17c0.61,0,1.11,0.5,1.11,1.11v0.17
	c0,0.61-0.5,1.11-1.11,1.11h-0.17C-418.94,594.12-419.44,593.62-419.44,593.01z"/>
<path class="st4" d="M-419.44,598.53v-0.17c0-0.61,0.5-1.11,1.11-1.11h0.17c0.61,0,1.11,0.5,1.11,1.11v0.17
	c0,0.61-0.5,1.11-1.11,1.11h-0.17C-418.94,599.64-419.44,599.14-419.44,598.53z"/>
<path class="st4" d="M-514,581.15h1.08v25.09H-514V581.15z M-512.39,606.24h0.54v-25.09h-0.54V606.24z M-510.77,606.24h1.61v-25.09
	h-1.61V606.24z M-508.08,606.24h1.08v-25.09h-1.08V606.24z M-505.93,606.24h1.08v-25.09h-1.08V606.24z M-504.32,606.24h1.08v-25.09
	h-1.08V606.24z M-502.17,606.24h0.54v-25.09h-0.54V606.24z M-501.09,606.24h0.54v-25.09h-0.54V606.24z M-499.48,606.24h1.08v-25.09
	h-1.08V606.24z M-496.25,606.24h0.54v-25.09h-0.54V606.24z M-495.17,606.24h2.15v-25.09h-2.15V606.24z M-492.48,606.24h1.61v-25.09
	h-1.61V606.24z M-490.33,606.24h1.08v-25.09h-1.08V606.24z M-488.72,606.24h1.61v-25.09h-1.61V606.24z M-486.03,606.24h0.54v-25.09
	h-0.54V606.24z M-484.41,606.24h1.08v-25.09h-1.08V606.24z M-482.8,606.24h1.08v-25.09h-1.08V606.24z M-480.65,606.24h1.08v-25.09
	h-1.08V606.24z M-478.5,606.24h1.08v-25.09h-1.08V606.24z M-476.88,606.24h1.61v-25.09h-1.61V606.24z M-474.19,606.24h0.54v-25.09
	h-0.54V606.24z M-472.58,606.24h1.61v-25.09h-1.61V606.24z M-470.43,606.24h0.54v-25.09h-0.54V606.24z M-468.81,606.24h1.08v-25.09
	h-1.08V606.24z M-466.66,606.24h0.54v-25.09h-0.54V606.24z M-465.05,606.24h1.61v-25.09h-1.61V606.24z M-462.36,606.24h1.08v-25.09
	h-1.08V606.24z M-460.74,606.24h1.08v-25.09h-1.08V606.24z M-459.13,606.24h1.08v-25.09h-1.08V606.24z M-456.98,606.24h1.08v-25.09
	h-1.08V606.24z M-454.83,606.24h0.54v-25.09h-0.54V606.24z M-453.21,606.24h1.61v-25.09h-1.61V606.24z M-450.52,606.24h1.08v-25.09
	h-1.08V606.24z M-448.91,606.24h1.61v-25.09h-1.61V606.24z M-446.76,606.24h1.08v-25.09h-1.08V606.24z M-445.15,606.24h1.61v-25.09
	h-1.61V606.24z M-442.99,606.24h1.61v-25.09h-1.61V606.24z M-440.84,606.24h1.08v-25.09h-1.08V606.24z M-439.23,606.24h1.61v-25.09
	h-1.61V606.24z M-437.08,606.24h2.15v-25.09h-2.15V606.24z M-434.39,606.24h0.54v-25.09h-0.54V606.24z M-433.31,606.24h0.54v-25.09
	h-0.54V606.24z M-431.16,606.24h1.08v-25.09h-1.08V606.24z M-428.47,606.24h1.61v-25.09h-1.61V606.24z M-426.32,606.24h0.54v-25.09
	h-0.54V606.24z M-425.24,606.24h1.08v-25.09h-1.08V606.24z"/>
<path class="st4" d="M-349.15,601.3c-2.12,2.03-5.23,3.04-8.24,2.58c2.49,4.88,9.86,5.93,13.61,1.9c4.24-3.99,2.83-11.68-2.52-13.92
	C-345.48,595.21-346.62,598.97-349.15,601.3z"/>
<path class="st4" d="M-355.93,602.7c3.29,0,6.24-1.87,7.7-4.74c-6.58,1.27-12.8-5.08-11.34-11.67c-2.96,1.39-4.93,4.32-4.97,7.71
	C-364.66,598.73-360.61,602.77-355.93,602.7z"/>
<path class="st4" d="M-354.16,590.02c0.94-5.42,6.69-9.15,12.06-7.75c-2.28-5.25-10-6.53-13.86-2.37
	c-3.98,3.75-3.03,10.92,1.74,13.52C-354.39,592.31-354.37,591.11-354.16,590.02z"/>
<path class="st4" d="M-344.44,585.48c-3.22,0-6.11,1.78-7.6,4.55c6.7-1.69,13.37,4.72,11.89,11.52
	C-332.57,597.22-335.71,585.47-344.44,585.48z"/>
<text transform="matrix(-1.836970e-16 1 -1 -1.836970e-16 -402.8135 580.5676)"><tspan x="0" y="0" class="st4" style="font-family:'Ubuntu-Medium'; font-size:7.0769px;">0</tspan><tspan x="3.86" y="0" class="st4" style="font-family:'Ubuntu-Medium'; font-size:7.0769px;">2</tspan><tspan x="7.76" y="0" class="st4" style="font-family:'Ubuntu-Medium'; font-size:7.0769px;">0.</tspan><tspan x="13.23" y="0" class="st4" style="font-family:'Ubuntu-Medium'; font-size:7.0769px;">0</tspan><tspan x="17.08" y="0" class="st4" style="font-family:'Ubuntu-Medium'; font-size:7.0769px;">21</tspan></text>
<path class="st4" d="M-385.62,595.49c0-0.78,0-1.55,0-2.32c0-0.21,0.08-0.39,0.24-0.52c0.08-0.07,0.17-0.1,0.27-0.1
	c0.52,0,1.03,0,1.55,0c0.25,0,0.48,0.22,0.49,0.47l0,0.13c0,1.02,0,2.04,0,3.05c0,0.26,0.28,0.43,0.5,0.3
	c0.13-0.08,0.16-0.21,0.16-0.35c0-0.65,0-1.3,0.01-1.95c0-0.08,0-0.16,0.01-0.24c0.07-0.66,0.48-1.19,1.18-1.35
	c0.15-0.04,0.31-0.05,0.47-0.05c0.53-0.01,1.06-0.01,1.59-0.01c0.34,0,0.69,0,1.03-0.01c0.82-0.02,1.45,0.69,1.51,1.34
	c0.03,0.33,0.02,0.66,0.02,0.99c0,0.85,0,1.69,0,2.54c0,0.27,0.01,0.54,0,0.8c-0.01,0.35-0.22,0.56-0.56,0.56
	c-0.32,0.01-0.64,0.01-0.95,0.01c-0.19,0-0.38,0-0.57-0.01c-0.29-0.01-0.48-0.22-0.48-0.51c0-0.92,0-1.85,0-2.77l-0.02-0.17
	c-0.04-0.17-0.17-0.25-0.36-0.23c-0.16,0.01-0.27,0.11-0.29,0.28l-0.01,0.11c0,0.67,0,1.34,0,2.02c0,0.37-0.08,0.71-0.32,1
	c-0.28,0.35-0.64,0.56-1.1,0.59c-0.14,0.01-0.29,0.02-0.43,0.02c-0.81,0-1.61,0-2.42,0c-0.59,0-1.05-0.25-1.36-0.75
	c-0.1-0.16-0.15-0.34-0.15-0.53C-385.62,597.03-385.62,596.26-385.62,595.49z M-385.06,595.47c0,0.66,0.01,1.33,0,1.99
	c0,0.27,0.08,0.5,0.24,0.71c0.17,0.22,0.4,0.35,0.68,0.35c0.92,0.01,1.85,0.01,2.77,0c0.22,0,0.44-0.07,0.62-0.21
	c0.28-0.21,0.35-0.52,0.35-0.85c0.01-0.65-0.01-1.29,0-1.94c0-0.28,0.06-0.55,0.29-0.75c0.27-0.24,0.58-0.33,0.92-0.2
	c0.37,0.14,0.58,0.46,0.58,0.84c0,0.33,0,0.66,0.01,0.99c0,0.21,0,0.43,0,0.64c0,0.32,0,0.64,0,0.96c0,0.17,0.05,0.23,0.22,0.23
	c0.32,0,0.64,0,0.95,0c0.21,0,0.28-0.07,0.29-0.27l0-0.11c0-1.18,0-2.36,0-3.54c0-0.11-0.01-0.23-0.02-0.34
	c-0.05-0.46-0.47-0.85-0.92-0.86c-0.93-0.01-1.86-0.01-2.8,0c-0.42,0-0.78,0.28-0.9,0.69c-0.04,0.13-0.06,0.28-0.06,0.42
	c-0.01,0.66,0,1.31,0,1.97l-0.01,0.2c-0.1,0.5-0.65,0.82-1.14,0.67c-0.35-0.1-0.61-0.47-0.61-0.85c0-0.92,0-1.85,0-2.77l0-0.1
	c-0.01-0.14-0.11-0.23-0.25-0.23c-0.21,0-0.41,0-0.61,0c-0.13,0-0.27,0-0.4,0.01c-0.11,0.01-0.16,0.06-0.17,0.18l0,0.1
	C-385.06,594.08-385.06,594.78-385.06,595.47z M-381.22,599.8c0.72,0,1.43,0,2.15,0c0.3,0,0.6,0,0.9-0.01
	c0.4-0.01,0.73,0.14,1.04,0.38c0.37,0.3,0.55,0.69,0.55,1.16c0,1.1,0,2.19,0,3.29c0,0.38-0.08,0.75-0.34,1.04
	c-0.33,0.36-0.74,0.56-1.23,0.56c-0.33,0-0.67,0-1,0c-0.31,0-0.61,0.01-0.92,0.01c-0.08,0-0.17-0.01-0.24-0.04
	c-0.21-0.07-0.33-0.23-0.34-0.45c-0.01-0.6-0.01-1.2,0-1.79c0-0.25,0.23-0.47,0.5-0.48c0.39-0.01,0.78,0,1.17,0
	c0.3,0,0.52-0.31,0.42-0.6c-0.04-0.1-0.11-0.17-0.2-0.22c-0.11-0.06-0.23-0.1-0.36-0.1c-0.78,0-1.56,0.01-2.35,0.01
	c-0.5,0-1,0-1.49,0c-0.16,0-0.33,0.01-0.49,0.05c-0.28,0.05-0.4,0.31-0.33,0.58l0.13,0.18c0.14,0.1,0.31,0.14,0.48,0.14
	c0.27-0.01,0.54-0.03,0.8-0.03c0.14,0,0.29,0.03,0.42,0.08c0.16,0.06,0.24,0.19,0.23,0.36c0,0.6-0.01,1.21,0,1.81
	c0.01,0.29-0.21,0.44-0.41,0.49c-0.1,0.03-0.2,0.03-0.3,0.03c-0.55,0-1.1,0-1.64-0.01c-0.68-0.01-1.27-0.4-1.48-1
	c-0.04-0.11-0.06-0.23-0.06-0.34c0-1.2,0-2.4,0-3.6c0-0.57,0.45-1.38,1.31-1.48c0.09-0.01,0.17-0.02,0.26-0.02
	C-383.1,599.8-382.16,599.8-381.22,599.8z M-381.08,600.34c-0.84,0-1.68,0-2.51,0c-0.2,0-0.39-0.01-0.59,0.01
	c-0.51,0.05-0.89,0.47-0.89,0.98c0,1.17,0,2.34,0,3.51c0,0.11,0.03,0.23,0.09,0.32c0.21,0.35,0.54,0.51,0.94,0.52
	c0.5,0.01,1,0.01,1.5,0.01c0.16,0,0.28-0.11,0.28-0.27c0-0.39,0-0.78,0-1.16c0-0.18-0.11-0.27-0.29-0.26
	c-0.24,0.01-0.49,0.02-0.73,0.01c-0.27-0.01-0.53-0.06-0.74-0.26c-0.19-0.19-0.33-0.4-0.34-0.68c-0.03-0.59,0.45-1.08,1.04-1.08
	c1.31,0,2.61,0,3.92,0c0.18,0,0.35,0.01,0.53,0.03c0.41,0.06,0.71,0.28,0.82,0.69c0.14,0.52-0.02,0.95-0.55,1.18
	c-0.2,0.09-0.42,0.11-0.63,0.11c-0.2,0-0.41-0.01-0.61-0.02c-0.17,0-0.26,0.08-0.27,0.26c-0.01,0.4-0.01,0.79-0.01,1.19
	c0,0.14,0.08,0.22,0.22,0.22c0.58,0.01,1.16,0.01,1.74,0.01c0.33,0,0.61-0.12,0.8-0.4c0.14-0.2,0.2-0.43,0.2-0.67
	c0.01-0.42,0.01-0.84,0.01-1.25c0-0.66,0-1.32,0-1.98l-0.02-0.21c-0.06-0.43-0.56-0.83-1.02-0.83
	C-379.16,600.35-380.12,600.34-381.08,600.34z M-379.24,588.09c-1.28,0-2.56,0-3.84,0c-0.45,0-0.9,0-1.35,0
	c-0.22,0-0.44,0.01-0.66-0.01c-0.3-0.03-0.48-0.23-0.51-0.52l-0.01-0.23c0-1.47,0-2.94,0-4.42c0-0.26,0.01-0.53,0.11-0.78
	c0.21-0.56,0.75-1,1.42-1c1.99,0,3.97,0.01,5.96,0c0.45,0,0.8,0.16,1.11,0.47c0.26,0.27,0.43,0.57,0.43,0.96
	c0.01,0.32,0.01,0.64,0.01,0.95c0,0.45,0,0.9,0,1.35c0,0.21,0.08,0.29,0.28,0.29c0.72,0,1.45,0,2.17,0c0.14,0,0.28,0,0.39,0.09
	c0.17,0.13,0.24,0.3,0.24,0.5c0,0.43,0,0.86,0,1.29c0,0.21,0,0.41-0.01,0.62c-0.01,0.15-0.08,0.28-0.21,0.36
	c-0.1,0.07-0.22,0.1-0.35,0.1C-375.79,588.09-377.52,588.09-379.24,588.09z M-379.56,587.53c1.5,0,3,0,4.51,0c0.25,0,0.5,0,0.75,0
	c0.16,0,0.25-0.08,0.25-0.23c0-0.47,0-0.94,0-1.41c0-0.1-0.05-0.16-0.14-0.18l-0.17-0.02c-0.15,0-0.29,0.01-0.44,0
	c-0.62-0.01-1.24-0.01-1.87-0.02c-0.22,0-0.41-0.15-0.46-0.37c-0.02-0.09-0.02-0.18-0.02-0.26c0-0.79,0-1.58,0-2.37
	c0-0.42-0.23-0.7-0.58-0.89c-0.09-0.05-0.2-0.07-0.31-0.08c-0.41-0.01-0.83-0.01-1.24-0.01c-0.83,0-1.66,0-2.49-0.01
	c-0.76,0-1.52,0-2.28,0l-0.23,0.02c-0.44,0.1-0.78,0.53-0.78,0.99c0,1.52,0,3.04,0,4.57l0.01,0.09c0.03,0.12,0.12,0.17,0.28,0.17
	C-383.04,587.53-381.3,587.53-379.56,587.53z M-381.11,591.75c-1.29,0-2.57,0-3.86,0c-0.16,0-0.3-0.03-0.44-0.1
	c-0.15-0.08-0.22-0.2-0.22-0.36c0-0.63,0-1.27,0-1.9c0-0.34,0.25-0.57,0.62-0.57c0.93,0,1.87,0,2.8,0c1.32,0,2.63-0.01,3.95-0.01
	c0.36,0,0.72,0,1.09,0c0.3,0.01,0.49,0.16,0.56,0.43l0.01,0.09c0,0.23,0,0.46,0.01,0.7c0,0.37,0,0.75,0.01,1.12
	c0.01,0.37-0.24,0.58-0.58,0.6l-0.13,0C-378.57,591.75-379.84,591.75-381.11,591.75L-381.11,591.75z M-381.12,589.34L-381.12,589.34
	c-1.22,0-2.45,0-3.67,0c-0.19,0-0.27,0.08-0.27,0.26c0,0.44,0,0.89,0,1.33c0,0.24,0.06,0.24,0.24,0.28l0.07,0c0.31,0,0.63,0,0.95,0
	c2.11,0,4.23,0,6.34-0.01c0.21,0,0.3-0.08,0.3-0.29c0-0.43,0-0.86,0-1.29c0-0.22-0.08-0.28-0.29-0.29c-0.3,0-0.61,0-0.91-0.01
	C-379.29,589.34-380.2,589.34-381.12,589.34z M-375.99,594.03c0,0.22,0,0.43,0,0.65c0.56,0,1.12,0,1.68,0l-0.04,0.03
	c-0.52,0.18-1.05,0.36-1.57,0.54l-0.08,0.11c0,0.15,0.01,0.3,0,0.46l0.08,0.11c0.45,0.15,0.89,0.3,1.34,0.45
	c0.1,0.03,0.19,0.07,0.28,0.1l0,0.02c-0.56,0-1.13,0-1.69,0c0,0.21,0,0.41,0,0.62c0.83,0,1.65,0,2.48,0v-0.08c0-0.26,0-0.52,0-0.77
	l-0.08-0.11c-0.53-0.18-1.06-0.36-1.6-0.54l-0.09-0.04l0.04-0.02c0.55-0.19,1.1-0.39,1.65-0.58l0.07-0.07c0-0.29,0-0.59,0-0.89
	C-374.34,594.03-375.16,594.03-375.99,594.03z M-387.18,587.1l0.06,0.04c0.12,0,0.24-0.02,0.36-0.02c0.24-0.02,0.37-0.16,0.42-0.38
	c0.03-0.12,0.05-0.24,0.06-0.36c0.02-0.35,0.03-0.69-0.04-1.03c-0.06-0.29-0.17-0.4-0.45-0.43c-0.52-0.05-1.05-0.05-1.57,0
	c-0.29,0.03-0.38,0.11-0.45,0.41l-0.01,0.06c-0.01,0.29-0.03,0.58-0.03,0.87c0,0.21,0.02,0.41,0.1,0.6
	c0.05,0.12,0.13,0.21,0.27,0.24c0.33,0.07,0.66,0.05,0.99,0.03c0-0.38,0-0.75,0-1.13c-0.14,0-0.27,0-0.42,0c0,0.16,0,0.32,0,0.48
	l-0.17-0.02c-0.14-0.03-0.17-0.04-0.17-0.18c-0.01-0.19,0-0.39,0.01-0.58c0.01-0.1,0.05-0.14,0.16-0.14c0.34,0,0.68-0.01,1.02,0
	c0.11,0,0.16,0.04,0.17,0.15c0.02,0.14,0.02,0.29,0.02,0.44c-0.01,0.27-0.03,0.3-0.31,0.34C-387.18,586.7-387.18,586.9-387.18,587.1
	z M-375.59,593.64c-0.22-0.01-0.33-0.14-0.37-0.34c-0.08-0.3-0.08-0.61-0.07-0.92c0.01-0.16,0.02-0.32,0.05-0.47
	c0.07-0.35,0.18-0.44,0.53-0.46c0.49-0.03,0.98-0.04,1.47,0.01c0.28,0.03,0.37,0.1,0.43,0.37c0.04,0.18,0.06,0.36,0.07,0.54
	c0.02,0.3,0.02,0.61-0.07,0.9l-0.08,0.2c-0.05,0.08-0.12,0.14-0.22,0.15c-0.26,0.02-0.51,0.03-0.77,0.05l-0.18,0
	C-374.8,593.68-375.32,593.66-375.59,593.64z M-375.46,592.54c0.01,0.11,0.02,0.21,0.02,0.32c0.01,0.08,0.04,0.13,0.13,0.14
	c0.1,0.01,0.2,0.02,0.31,0.02c0.26,0,0.52-0.02,0.79-0.03c0.09,0,0.13-0.05,0.14-0.14c0.03-0.21,0.02-0.41-0.01-0.62l-0.13-0.12
	c-0.36-0.03-0.71-0.03-1.07,0.02c-0.09,0.01-0.14,0.06-0.15,0.14C-375.45,592.36-375.45,592.45-375.46,592.54z M-388.79,600.5
	c0.82,0,1.63,0,2.46,0c0,0.14,0,0.28,0,0.42c0,0.34-0.01,0.67-0.02,1.01c0,0.13-0.02,0.26-0.05,0.39c-0.05,0.23-0.19,0.34-0.43,0.36
	c-0.44,0.04-0.88,0.04-1.32,0.02c-0.09-0.01-0.18-0.02-0.27-0.03c-0.14-0.02-0.28-0.18-0.31-0.32c-0.09-0.41-0.08-0.82-0.07-1.23
	c0-0.17,0-0.34,0.01-0.51L-388.79,600.5z M-388.2,601.15c0,0.25-0.01,0.5,0,0.74c0,0.11,0.06,0.15,0.17,0.16
	c0.21,0.01,0.43,0.02,0.65,0.02c0.11,0,0.22-0.02,0.33-0.03l0.12-0.13c0.01-0.25,0.01-0.5,0.02-0.75l-0.01-0.01
	C-387.36,601.15-387.78,601.15-388.2,601.15z M-386.34,581.29v0.09c0,0.41,0,0.82-0.01,1.23c-0.01,0.18-0.03,0.36-0.07,0.53
	c-0.05,0.21-0.17,0.32-0.39,0.33c-0.42,0.02-0.84,0.02-1.26,0.02c-0.09,0-0.18-0.01-0.27-0.02c-0.2-0.01-0.32-0.11-0.37-0.29
	c-0.04-0.15-0.08-0.31-0.08-0.46c-0.01-0.45,0-0.9,0-1.35l0.08-0.08c0.77,0,1.54,0,2.31,0L-386.34,581.29z M-388.2,581.94
	c0,0.25-0.01,0.49,0,0.73c0,0.12,0.04,0.16,0.16,0.16c0.33,0.01,0.66,0,0.98-0.01l0.12-0.12c0.01-0.25,0.02-0.51,0.03-0.76
	C-387.36,581.94-387.78,581.94-388.2,581.94z M-386.66,604.07c0.13,0.01,0.22,0.09,0.25,0.21c0.05,0.16,0.09,0.33,0.11,0.5
	c0.03,0.32,0.03,0.64-0.03,0.96l-0.04,0.14c-0.08,0.25-0.19,0.34-0.45,0.35c-0.46,0.01-0.92,0.01-1.38,0.02
	c-0.1,0-0.19-0.02-0.29-0.03c-0.14-0.02-0.23-0.12-0.27-0.24c-0.04-0.15-0.08-0.3-0.09-0.45c-0.02-0.35-0.03-0.7,0.04-1.04l0.03-0.1
	c0.08-0.23,0.19-0.33,0.44-0.34c0.25-0.01,0.5-0.02,0.75-0.03C-387.58,604.01-386.97,604.04-386.66,604.07z M-387.6,605.61
	L-387.6,605.61c0.09-0.01,0.18-0.01,0.27-0.01l0.15-0.01c0.28-0.02,0.3-0.04,0.32-0.32c0.01-0.15-0.01-0.3-0.03-0.44
	c-0.01-0.08-0.07-0.13-0.15-0.14c-0.35-0.03-0.69-0.03-1.03,0.02c-0.11,0.01-0.16,0.05-0.16,0.15c-0.01,0.18-0.01,0.37,0,0.55
	c0.01,0.14,0.05,0.17,0.19,0.18C-387.91,605.59-387.76,605.6-387.6,605.61z M-373.83,604.29c0.17-0.03,0.24-0.19,0.28-0.34
	c0.12-0.49,0.09-0.98-0.01-1.47c-0.05-0.24-0.17-0.33-0.42-0.35c-0.52-0.04-1.05-0.05-1.57,0c-0.21,0.02-0.35,0.11-0.41,0.32
	l-0.01,0.05c-0.08,0.28-0.08,0.57-0.07,0.86c0.01,0.22,0.05,0.44,0.09,0.65c0.02,0.12,0.11,0.22,0.23,0.25
	c0.21,0.04,0.42,0.05,0.63,0.08c0-0.23,0-0.44,0-0.65l-0.18-0.02c-0.08-0.01-0.16-0.04-0.18-0.13c-0.04-0.22-0.04-0.43,0.01-0.65
	l0.13-0.12c0.36-0.03,0.72-0.03,1.08,0.02c0.08,0.01,0.12,0.07,0.13,0.15c0.03,0.2,0.02,0.4-0.01,0.59
	c-0.02,0.09-0.07,0.13-0.16,0.14l-0.2,0.02c0,0.21,0,0.42,0,0.66C-374.24,604.33-374.03,604.32-373.83,604.29z M-373.89,591.07
	c0.14-0.01,0.24-0.09,0.29-0.21c0.05-0.13,0.11-0.28,0.11-0.42c0.01-0.33,0-0.65-0.01-0.98c-0.01-0.16-0.05-0.31-0.15-0.43
	l-0.17-0.11c-0.35-0.08-0.71-0.06-1.06-0.06c-0.19,0-0.38,0.02-0.57,0.02c-0.35,0.02-0.43,0.08-0.51,0.41
	c-0.11,0.47-0.08,0.95,0.01,1.42c0.03,0.19,0.15,0.3,0.33,0.34c0.18,0.03,0.36,0.04,0.55,0.05c0-0.23,0-0.44,0-0.65l-0.13-0.01
	c-0.17-0.02-0.21-0.05-0.23-0.23c-0.01-0.16-0.01-0.32,0.01-0.47c0.02-0.18,0.04-0.19,0.23-0.22l0.06-0.01
	c0.3,0.01,0.61,0.01,0.91,0.02c0.08,0,0.13,0.04,0.14,0.12c0.05,0.23,0.04,0.45-0.01,0.68l-0.1,0.1c-0.08,0.01-0.16,0.02-0.24,0.03
	c0,0.21,0,0.41,0,0.64C-374.25,591.1-374.07,591.09-373.89,591.07z M-375.42,598.26c-0.2,0-0.38,0-0.57,0c0-0.21,0-0.42,0-0.63
	c0.83,0,1.65,0,2.49,0c0,0.15,0,0.29,0,0.43c0,0.33,0.01,0.65,0,0.98c0,0.11-0.02,0.21-0.05,0.32c-0.06,0.19-0.2,0.31-0.39,0.34
	c-0.36,0.05-0.72,0.06-1.08,0.01c-0.18-0.03-0.29-0.13-0.32-0.31c-0.04-0.2-0.06-0.4-0.07-0.6
	C-375.43,598.62-375.42,598.44-375.42,598.26z M-374.11,598.26c-0.23,0-0.47,0-0.71,0c0,0.21,0,0.42,0,0.62l0.04,0.12l0.08,0.06
	c0.13,0.01,0.25,0.03,0.38,0.01c0.17-0.02,0.18-0.03,0.2-0.21C-374.09,598.67-374.11,598.47-374.11,598.26z M-386.45,599.46
	c-0.53,0-1.06,0-1.59,0l-0.07,0c-0.1-0.01-0.16-0.05-0.17-0.15c-0.01-0.16-0.03-0.32-0.01-0.47c0.02-0.27,0.06-0.3,0.33-0.3
	c0.51,0,1.02,0,1.53,0h0.09c0-0.22,0-0.43,0-0.65l-0.1,0c-0.62,0-1.24,0.01-1.86,0.01c-0.29,0-0.44,0.12-0.51,0.39
	c-0.08,0.31-0.08,0.62-0.06,0.93c0.01,0.19,0.04,0.37,0.08,0.55c0.05,0.22,0.17,0.3,0.4,0.3c0.66,0,1.31,0,1.97,0l0.09,0
	c0-0.21,0-0.41,0-0.62H-386.45z M-376,599.69c0.84,0.25,1.66,0.49,2.49,0.73c0,0.23,0,0.46,0,0.7l-0.01,0.2l-0.18,0.07
	c-0.75,0.22-1.51,0.44-2.26,0.67l-0.02,0l-0.01-0.06c0-0.16,0-0.33,0-0.49l0.07-0.09c0.13-0.03,0.25-0.08,0.37-0.11l0.07-0.1
	c0-0.22,0-0.44,0-0.66l-0.07-0.09c-0.13-0.04-0.26-0.08-0.39-0.12l-0.06-0.05C-376,600.09-376,599.9-376,599.69z M-375.05,601.14
	c0.31-0.09,0.61-0.17,0.9-0.26l0-0.02c-0.3-0.09-0.6-0.17-0.9-0.26C-375.05,600.79-375.05,600.96-375.05,601.14z M-388.79,597.76
	c0-0.2,0-0.38,0-0.57l0.05-0.06c0.13-0.04,0.26-0.08,0.39-0.11l0.06-0.07c0-0.23,0-0.46,0-0.7l-0.06-0.07
	c-0.13-0.03-0.26-0.07-0.38-0.11l-0.06-0.05c0-0.2,0-0.39,0-0.6c0.09,0.02,0.16,0.04,0.24,0.06c0.71,0.21,1.42,0.42,2.13,0.63
	l0.09,0.12c-0.01,0.25,0,0.5,0,0.76l-0.07,0.09c-0.78,0.23-1.56,0.46-2.35,0.68L-388.79,597.76z M-387.87,596.85
	c0.31-0.09,0.61-0.17,0.91-0.25l0-0.02c-0.3-0.09-0.6-0.17-0.9-0.26C-387.87,596.51-387.87,596.67-387.87,596.85z M-388.79,590.2
	c0.15,0.04,0.3,0.09,0.44,0.13c0.65,0.19,1.29,0.39,1.94,0.58l0.08,0.11c0,0.25,0,0.5,0,0.75l-0.06,0.09
	c-0.79,0.23-1.58,0.46-2.36,0.69l-0.04,0c0-0.16,0-0.32,0-0.49c0-0.13,0-0.13,0.12-0.16c0.1-0.03,0.2-0.06,0.29-0.08l0.06-0.08
	c0-0.23,0-0.46,0-0.69l-0.06-0.08c-0.12-0.03-0.24-0.07-0.36-0.11l-0.05-0.05C-388.79,590.61-388.79,590.41-388.79,590.2z
	 M-387.9,591.65c0.31-0.09,0.61-0.17,0.92-0.26l0-0.02c-0.3-0.09-0.61-0.18-0.91-0.27C-387.9,591.29-387.9,591.46-387.9,591.65z
	 M-374.3,605.02c-0.54,0-1.07,0-1.61,0l-0.09,0.09c0.01,0.12,0,0.24,0,0.37v0.19c0.61,0,1.21,0,1.81,0c0,0.17,0,0.34,0,0.5
	l0.07,0.07c0.1,0,0.21,0,0.31,0c0.1,0,0.19,0,0.29,0c0-0.6,0-1.19,0-1.78c-0.23,0-0.45,0-0.67,0c0,0.19,0,0.37,0,0.56H-374.3z
	 M-388.79,589.04c0,0.22,0,0.42,0,0.64c0.61,0,1.21,0,1.82,0c0,0.2,0,0.39,0,0.57c0.22,0,0.42,0,0.64,0c0-0.59,0-1.18,0-1.77
	c-0.22,0-0.42,0-0.64,0c0,0.18,0,0.36,0,0.56C-387.59,589.04-388.19,589.04-388.79,589.04z M-388.16,594.52c0-0.33,0-0.65,0-0.98
	c0.61,0,1.21,0,1.82,0c0-0.22,0-0.43,0-0.64c-0.82,0-1.63,0-2.45,0c0,0.54,0,1.08,0,1.62
	C-388.58,594.52-388.37,594.52-388.16,594.52z M-388.79,603.05c0,0.22,0,0.43,0,0.65c0.82,0,1.63,0,2.45,0c0-0.22,0-0.43,0-0.65
	C-387.17,603.05-387.98,603.05-388.79,603.05z M-386.34,587.51c-0.82,0-1.63,0-2.45,0c0,0.22,0,0.44,0,0.65c0.82,0,1.63,0,2.45,0
	C-386.34,587.94-386.34,587.73-386.34,587.51z M-386.34,584.52c0-0.22,0-0.43,0-0.64l-0.06,0c-0.63,0-1.26,0-1.89,0
	c-0.15,0-0.29,0-0.44,0l-0.06,0.04c0,0.2,0,0.4,0,0.6C-387.97,584.52-387.16,584.52-386.34,584.52z M-381.18,583.44
	c0.67,0,1.35-0.01,2.03,0c0.16,0,0.33,0.03,0.49,0.08c0.41,0.14,0.61,0.45,0.68,0.86c0.07,0.44-0.06,0.79-0.42,1.06
	c-0.23,0.18-0.5,0.23-0.78,0.23c-1.2,0-2.4,0-3.59,0c-0.18,0-0.35,0.01-0.53,0c-0.32-0.02-0.57-0.17-0.78-0.41
	c-0.3-0.35-0.34-0.99-0.01-1.4c0.22-0.28,0.5-0.42,0.86-0.42C-382.55,583.45-381.86,583.45-381.18,583.44L-381.18,583.44z
	 M-381.14,583.99L-381.14,583.99c-0.69,0.01-1.38,0.01-2.07,0.01c-0.23,0-0.45,0.15-0.53,0.35c-0.09,0.23-0.04,0.47,0.13,0.63
	c0.15,0.13,0.33,0.16,0.52,0.16c1.27,0,2.54,0,3.82,0c0.08,0,0.17,0,0.25-0.02c0.24-0.04,0.42-0.15,0.49-0.39
	c0.11-0.4-0.19-0.74-0.54-0.74C-379.76,583.99-380.45,583.99-381.14,583.99z"/>
<rect x="-393.93" y="581.19" class="st4" width="1.17" height="25.09"/>
<rect x="-369.59" y="581.19" class="st4" width="1.17" height="25.09"/>
</svg>
